<?xml version="1.0" standalone="no"?>
<!DOCTYPE svg PUBLIC "-//W3C//DTD SVG 1.1//EN" "http://www.w3.org/Graphics/SVG/1.1/DTD/svg11.dtd" >
<!--
2013-9-30: Created.
-->
<svg>
<metadata>
Created by iconfont
</metadata>
<defs>

<font id="iconfont" horiz-adv-x="1024" >
  <font-face
    font-family="iconfont"
    font-weight="500"
    font-stretch="normal"
    units-per-em="1024"
    ascent="896"
    descent="-128"
  />
    <missing-glyph />
    
    <glyph glyph-name="x" unicode="x" horiz-adv-x="1001"
d="M281 543q-27 -1 -53 -1h-83q-18 0 -36.5 -6t-32.5 -18.5t-23 -32t-9 -45.5v-76h912v41q0 16 -0.5 30t-0.5 18q0 13 -5 29t-17 29.5t-31.5 22.5t-49.5 9h-133v-97h-438v97zM955 310v-52q0 -23 0.5 -52t0.5 -58t-10.5 -47.5t-26 -30t-33 -16t-31.5 -4.5q-14 -1 -29.5 -0.5
t-29.5 0.5h-32l-45 128h-439l-44 -128h-29h-34q-20 0 -45 1q-25 0 -41 9.5t-25.5 23t-13.5 29.5t-4 30v167h911zM163 247q-12 0 -21 -8.5t-9 -21.5t9 -21.5t21 -8.5q13 0 22 8.5t9 21.5t-9 21.5t-22 8.5zM316 123q-8 -26 -14 -48q-5 -19 -10.5 -37t-7.5 -25t-3 -15t1 -14.5
t9.5 -10.5t21.5 -4h37h67h81h80h64h36q23 0 34 12t2 38q-5 13 -9.5 30.5t-9.5 34.5q-5 19 -11 39h-368zM336 498v228q0 11 2.5 23t10 21.5t20.5 15.5t34 6h188q31 0 51.5 -14.5t20.5 -52.5v-227h-327z" />
    

    
    <glyph glyph-name="location" unicode="&#58961;" d="M512 288c-105.888 0-192 86.112-192 192s86.112 192 192 192 192-86.112 192-192S617.888 288 512 288zM512 608c-70.592 0-128-57.408-128-128s57.408-128 128-128c70.592 0 128 57.408 128 128S582.592 608 512 608zM512-64c-7.936 0-15.904 2.944-22.08 8.832-12.768 12.224-13.248 32.48-1.056 45.248C575.392 80.8 800 345.664 800 480c0 158.784-129.184 288-288 288-158.784 0-288-129.216-288-288 0-75.616 72.544-206.08 204.256-367.424 11.2-13.728 9.152-33.888-4.544-45.024-13.696-11.168-33.888-9.152-45.024 4.544C233.568 249.824 160 387.072 160 480 160 674.08 317.92 832 512 832s352-157.92 352-352c0-187.36-315.424-520.032-328.832-534.08C528.864-60.672 520.448-64 512-64z"  horiz-adv-x="1024" />

    
    <glyph glyph-name="search" unicode="&#58972;" d="M953.504-12.256l-152.608 163.296c61.856 74.496 95.872 167.36 95.872 265.12 0 229.344-186.624 415.968-416.032 415.968-229.344 0-415.968-186.592-415.968-415.968s186.624-415.968 416-415.968c60.096 0.032 118.048 12.576 172.224 37.248 16.096 7.328 23.2 26.304 15.872 42.368-7.328 16.128-26.4 23.264-42.368 15.872-45.856-20.864-94.88-31.456-145.76-31.488-194.08 0-351.968 157.888-351.968 351.968 0 194.048 157.888 351.968 351.968 351.968 194.112 0 352.032-157.888 352.032-351.968 0-91.36-34.848-177.92-98.08-243.744-12.256-12.736-11.84-32.992 0.864-45.248 0.96-0.928 2.208-1.28 3.296-2.08 0.864-1.28 1.312-2.752 2.4-3.904l165.504-177.088c6.272-6.752 14.816-10.144 23.36-10.144 7.84 0 15.68 2.848 21.856 8.64C964.864-45.408 965.568-25.152 953.504-12.256z"  horiz-adv-x="1024" />

    
    <glyph glyph-name="denglumima" unicode="&#58882;" d="M798.975479-147.297372 204.360899-147.297372c-52.540633 0-95.135754 42.830481-95.135754 95.674013L109.225145 355.027268c0 52.842509 42.595121 95.683223 95.135754 95.683223l484.185514 0L688.546414 516.957287c0 97.581456-74.369801 176.694281-166.110225 176.694281l-41.535999 0c-89.040942 0-161.511487-74.586742-165.708066-168.189583l-56.465013 0c0 123.842563 98.876961 224.25346 220.859153 224.25346l44.163849 0c121.981169 0 220.85813-100.409874 220.85813-224.25346l0-74.750471 54.367235 0c52.540633 0 95.135754-42.841737 95.135754-95.683223l0-406.650627C894.111233-104.466891 851.516112-147.297372 798.975479-147.297372zM838.048379 348.365544c0 25.568329-20.769023 46.282093-46.391587 46.282093L211.679585 394.647637c-25.623587 0-46.390563-20.713764-46.390563-46.282093l0-393.337413c0-25.549909 20.767999-46.26265 46.390563-46.26265l579.977207 0c25.622564 0 46.391587 20.712741 46.391587 46.26265L838.048379 348.365544zM514.133082 2.824717c-0.985444-0.346901-2.007727-0.6191-3.121084-0.6191l-37.375236 0c-5.164626 0-9.343809 4.179183-9.343809 9.343809L464.292953 123.674109c0 5.155417 4.178159 9.343809 9.343809 9.343809l37.375236 0c5.164626 0 9.344832-4.188392 9.344832-9.343809l0-63.526849c42.649356 8.659217 74.750471 46.353724 74.750471 91.559299 0 51.610448-41.828664 93.439112-93.439112 93.439112-51.610448 0-93.439112-41.828664-93.439112-93.439112 0-6.405897 0.656963-12.647041 1.879813-18.688641l-1.879813 0 0-9.343809c0-5.164626-4.179183-9.344832-9.343809-9.344832l-37.374212 0c-5.16565 0-9.343809 4.180206-9.343809 9.344832l0 37.375236c0 1.104147 0.273223 2.134617 0.620124 3.120061 6.351662 76.723406 70.517053 137.038096 148.881842 137.038096 82.562391 0 149.501966-66.939575 149.501966-149.501966C651.170155 73.34177 590.854441 9.176378 514.133082 2.824717z"  horiz-adv-x="1024" />

    
    <glyph glyph-name="sort" unicode="&#59136;" d="M384 576l512 0c17.696 0 32 14.336 32 32s-14.304 32-32 32L384 640c-17.664 0-32-14.336-32-32S366.336 576 384 576zM896 416 384 416c-17.664 0-32-14.336-32-32s14.336-32 32-32l512 0c17.696 0 32 14.336 32 32S913.696 416 896 416zM896 192 384 192c-17.664 0-32-14.304-32-32s14.336-32 32-32l512 0c17.696 0 32 14.304 32 32S913.696 192 896 192zM192 608m-64 0a2 2 0 1 0 128 0 2 2 0 1 0-128 0ZM192 384m-64 0a2 2 0 1 0 128 0 2 2 0 1 0-128 0ZM192 160m-64 0a2 2 0 1 0 128 0 2 2 0 1 0-128 0Z"  horiz-adv-x="1024" />

    
    <glyph glyph-name="icon" unicode="&#58887;" d="M501.957785 743.481464 63.108828 308.730848l364.968295-393.936047 476.600769 446.721251L914.481166 743.481464 501.957785 743.481464 501.957785 743.481464zM732.952786 660.183316c46.949288 0 85.021395-38.07313 85.021395-85.020372 0-46.948265-38.072107-85.021395-85.021395-85.021395-46.950312 0-85.022419 38.07313-85.022419 85.021395C647.930367 622.110185 686.002474 660.183316 732.952786 660.183316L732.952786 660.183316zM914.481166 299.997953 565.166385-37.431126 671.223886-143.481464 914.481166 299.997953Z"  horiz-adv-x="1024" />

    
    <glyph glyph-name="wodejifen" unicode="&#58896;" d="M524.811 268.998c-236.43 0-414.725 84.302-414.725 196.091 0 111.797 178.295 196.1 414.725 196.1 236.429 0 414.724-84.302 414.724-196.1C939.534 353.3 761.239 268.998 524.811 268.998zM524.811 601.521c-204.535 0-357.375-72.029-357.375-136.431 0-64.395 152.84-136.423 357.375-136.423 204.533 0 357.374 72.028 357.374 136.423C882.185 529.492 729.344 601.521 524.811 601.521zM524.811 95.274c-236.43 0-414.725 84.302-414.725 196.084 0 23.919 8.541 59.945 49.257 95.78 12.111 10.657 30.173 9.069 40.422-3.51 10.221-12.579 8.708-31.4-3.375-42.042-13.217-11.625-28.956-29.776-28.956-50.229 0-64.395 152.84-136.417 357.375-136.417 204.533 0 357.374 72.022 357.374 136.417 0 16.024-9.312 32.544-27.667 49.092-11.972 10.795-13.259 29.638-2.898 42.085 10.361 12.456 28.479 13.811 40.45 3.017 31.055-28 47.465-60.564 47.465-94.194C939.534 179.576 761.239 95.274 524.811 95.274zM524.811-77.503c-236.43 0-414.725 84.303-414.725 196.092 0 23.913 8.541 59.938 49.257 95.774 12.111 10.642 30.173 9.068 40.422-3.512 10.221-12.579 8.708-31.399-3.375-42.042-19.21-16.904-28.956-33.803-28.956-50.221 0-64.395 152.84-136.423 357.375-136.423 204.533 0 357.374 72.028 357.374 136.423 0 16.025-9.312 32.543-27.667 49.085-11.972 10.787-13.274 29.631-2.898 42.086 10.361 12.448 28.45 13.81 40.45 3.015 31.055-27.984 47.465-60.557 47.465-94.186C939.534 6.8 761.239-77.503 524.811-77.503z"  horiz-adv-x="1024" />

    
    <glyph glyph-name="31gouwuchexuanzhong" unicode="&#58880;" d="M914.563542 688.730353c-15.143908 17.145495-36.001959 26.574239-58.688657 26.574239L247.978814 715.304591l-2.332115 13.46057c-5.294586 43.370787-43.400462 77.285201-86.785575 77.285201l-38.540781 0c-15.869433 0-28.77844-12.910031-28.77844-28.77844s12.910031-28.77844 28.77844-28.77844l38.540781 0c14.302751 0 27.965935-12.851703 29.851888-28.053939l29.184693-168.726819 51.305503-361.272114c5.250584-43.313481 42.921555-77.226872 85.784782-77.226872l491.37117 0c15.869433 0 28.77844 12.910031 28.77844 28.77844 0 15.839757-12.910031 28.749788-28.77844 28.749788l-491.37117 0c-13.794168 0-26.936489 12.44545-28.705785 27.183106l-4.253884 29.958312 481.047034 36.592406c42.935881 0 80.534198 33.217543 85.697801 75.601862l47.694255 272.730545C939.919023 641.413698 931.941328 669.11869 914.563542 688.730353zM362.821399 79.995171c-32.536021 0-59.022255-26.487258-59.022255-59.037605 0-32.521694 26.487258-59.007929 59.022255-59.007929 32.536021 0 59.022255 26.487258 59.022255 59.007929C421.843654 53.508937 395.356396 79.995171 362.821399 79.995171zM786.364765 79.995171c-32.550347 0-59.036581-26.487258-59.036581-59.037605 0-32.521694 26.487258-59.007929 59.036581-59.007929 32.521694 0 59.007929 26.487258 59.007929 59.007929C845.372693 53.508937 818.886459 79.995171 786.364765 79.995171z"  horiz-adv-x="1024" />

    
    <glyph glyph-name="31gouwuche" unicode="&#58881;" d="M846.35916 170.740942l-491.37117 0c-13.794168 0-26.936489 12.44545-28.705785 27.183106l-51.509141 362.723162-29.127388 168.117952c-5.294586 43.370787-43.400462 77.285201-86.785575 77.285201l-38.540781 0c-15.869433 0-28.77844-12.910031-28.77844-28.77844s12.910031-28.77844 28.77844-28.77844l38.540781 0c14.302751 0 27.966958-12.851703 29.851888-28.053939l29.184693-168.726819 51.305503-361.272114c5.250584-43.313481 42.921555-77.226872 85.784782-77.226872l491.37117 0c15.869433 0 28.77844 12.910031 28.77844 28.77844C875.138624 157.831934 862.228593 170.740942 846.35916 170.740942zM914.563542 688.730353c-15.143908 17.145495-36.001959 26.574239-58.688657 26.574239L332.084351 715.304591c-15.869433 0-28.77844-12.910031-28.77844-28.77844s12.910031-28.77844 28.77844-28.77844l523.790534 0c6.179746 0 11.43033-2.407839 15.607466-7.136537 6.208399-7.020904 9.370415-18.538215 8.064676-29.358655l-47.664579-272.730545c-1.769296-14.534018-15.637142-26.51591-30.896684-26.602891l-410.28541-30.258141c-7.658424-0.551562-14.620999-4.03285-19.640316-9.863648-5.033643-5.802146-7.484462-13.229303-6.919597-20.887726 1.087774-14.969946 13.678534-26.689872 28.662807-26.689872 0.681522 0 1.407046 0.028653 2.118244 0.086981l408.153864 30.17116c42.935881 0 80.534198 33.217543 85.697801 75.601862l47.694255 272.730545C939.919023 641.413698 931.941328 669.11869 914.563542 688.730353zM362.821399-38.049339c32.536021 0 59.022255 26.487258 59.022255 59.007929 0 32.550347-26.487258 59.037605-59.022255 59.037605s-59.022255-26.487258-59.022255-59.037605C303.798121-11.563104 330.285379-38.049339 362.821399-38.049339zM786.364765-38.049339c32.521694 0 59.007929 26.487258 59.007929 59.007929 0 32.550347-26.487258 59.037605-59.007929 59.037605-32.550347 0-59.036581-26.487258-59.036581-59.037605C727.328183-11.563104 753.814418-38.049339 786.364765-38.049339z"  horiz-adv-x="1024" />

    
    <glyph glyph-name="31shouyexuanzhong" unicode="&#58883;" d="M939.175079 411.656897 557.721321 788.244834c-1.927909 2.289136-5.950526 6.025227-11.568477 9.730619-10.06217 6.627954-20.757766 10.001795-31.783891 10.001795-11.855002 0-22.820752-3.40454-32.597419-10.092869-6.477528-4.458545-9.942443-8.465812-11.4334-10.454096L89.606831 411.626197c-6.522554-6.417153-10.107195-14.973016-10.107195-24.071232 0-9.06854 3.584642-17.624403 10.107195-24.041556 11.990079-11.900028 29.494755-8.495488 46.169529 7.92346l25.592888 25.306362 41.892109 40.08495 0-389.497968c0-48.143487 39.617299-87.308485 88.317465-87.308485l148.993382 0L440.572204 208.329025c0 19.160385 15.84692 34.736129 35.30918 34.736129l77.020164 0c19.47761 0 35.293831-15.575744 35.293831-34.736129l0-248.307296 149.008732 0c48.685839 0 88.332814 39.164998 88.332814 87.308485L825.536926 434.810223l67.484997-66.355267c11.508102-7.531534 21.842471-11.538801 30.217209-11.538801 6.236028 0 11.44875 2.169409 15.936971 6.598278 6.507204 6.417153 10.092869 14.94334 10.122545 24.041556C949.297624 396.653181 945.712983 405.210068 939.175079 411.656897z"  horiz-adv-x="1024" />

    
    <glyph glyph-name="31shouye" unicode="&#58884;" d="M939.175079 411.656897 557.721321 788.244834c-1.927909 2.290159-5.950526 6.025227-11.568477 9.730619-10.06217 6.627954-20.757766 10.001795-31.783891 10.001795-11.855002 0-22.820752-3.40454-32.597419-10.092869-6.477528-4.458545-9.942443-8.465812-11.4334-10.454096L89.606831 411.626197c-6.522554-6.417153-10.107195-14.973016-10.107195-24.071232 0-9.06854 3.584642-17.624403 10.107195-24.041556 11.990079-11.900028 29.494755-8.495488 46.169529 7.92346l25.592888 25.306362 354.068038 342.966189 2.15406-2.109034 375.428531-369.146455c11.508102-7.531534 21.842471-11.538801 30.217209-11.538801 6.236028 0 11.44875 2.169409 15.936971 6.598278 6.507204 6.417153 10.092869 14.94334 10.122545 24.041556C949.297624 396.653181 945.712983 405.210068 939.175079 411.656897zM796.885376 431.119157c-15.72617 0-28.590152-12.68388-28.681226-28.259624l0-351.311251c0-19.191084-15.816221-34.796504-35.278481-34.796504l-87.458911 0L645.466758 212.576769c0 48.143487-39.617299 87.308485-88.317465 87.308485l-85.531002 0c-48.700165 0-88.317465-39.164998-88.317465-87.308485L383.300826 16.751778 295.841915 16.751778c-19.462261 0-35.30918 15.60542-35.30918 34.796504L260.532735 402.769482c-0.029676 15.636119-12.863982 28.349675-28.620851 28.349675-15.741519 0-28.605501-12.713556-28.650527-28.318976l0-355.468944c0-48.143487 39.617299-87.308485 88.317465-87.308485l148.993382 0L440.572204 208.329025c0 19.160385 15.84692 34.736129 35.30918 34.736129l77.020164 0c19.47761 0 35.293831-15.575744 35.293831-34.736129l0-248.307296 149.008732 0c48.685839 0 88.332814 39.164998 88.332814 87.308485L825.536926 402.829857C825.415153 418.405601 812.580846 431.119157 796.885376 431.119157z"  horiz-adv-x="1024" />

    
    <glyph glyph-name="31wodexuanzhong" unicode="&#58885;" d="M899.640668-1.714805c-7.238868 108.132766-60.680011 208.738092-146.610102 276.03173l-5.16565 3.568269-0.047072-0.069585c-4.88731 2.988054-10.458189 4.586458-16.192797 4.586458-19.701714 0-31.458479-9.498328-31.458479-25.411763 0-9.266038 4.285606-17.975397 11.477402-23.882943l-0.080841-0.13917 4.562922-3.266393c72.065316-51.518351 112.638383-129.652895 120.584356-232.273111l0.084934-1.119497c-0.071631-0.862647-0.116657-1.731434-0.116657-2.612501 0-17.340947 14.058181-31.400151 31.400151-31.400151 16.759709 0 30.449499 13.131065 31.350009 29.665647l0.624217 0L899.640668-1.714805zM798.515502 524.204206c0 156.107407-128.529305 283.119149-286.524712 283.119149s-286.525736-127.011742-286.525736-283.119149c0-84.110653 37.19104-162.570609 102.377692-216.660528-117.01711-62.452377-194.688097-181.588755-203.479321-313.118394l-0.36225-5.482875c-0.007163-0.113587-0.016373-0.226151-0.022513-0.340761l-0.032746-0.499373 0.019443 0c-0.008186-0.267083-0.019443-0.533143-0.019443-0.802272 0-14.702863 11.918447-26.622334 26.622334-26.622334 14.702863 0 26.622334 11.918447 26.622334 26.622334 0 0.26913-0.01228 0.535189-0.019443 0.802272l0.553609 0 0.417509 5.467525c9.647731 124.997875 88.871073 234.450706 202.112184 279.552927 33.809013-15.705704 85.420485-32.060183 131.714857-32.060183 42.889833 0 84.540442 9.451256 124.198673 28.307719l29.048593 16.863063 23.720238 15.566534C758.567675 356.003366 798.515502 437.080939 798.515502 524.204206z"  horiz-adv-x="1024" />

    
    <glyph glyph-name="31wode" unicode="&#58886;" d="M899.640668-1.714805c-7.238868 108.132766-60.680011 208.738092-146.610102 276.03173l-5.16565 3.568269-0.047072-0.069585c-4.88731 2.988054-10.458189 4.586458-16.192797 4.586458-19.701714 0-31.458479-9.498328-31.458479-25.411763 0-9.266038 4.285606-17.975397 11.477402-23.882943l-0.080841-0.13917 4.562922-3.266393c72.065316-51.518351 112.638383-129.652895 120.584356-232.273111l0.084934-1.119497c-0.071631-0.862647-0.116657-1.731434-0.116657-2.612501 0-17.340947 14.058181-31.400151 31.400151-31.400151 16.759709 0 30.449499 13.131065 31.350009 29.665647l0.624217 0L899.640668-1.714805zM798.515502 524.204206c0 156.107407-128.529305 283.119149-286.524712 283.119149s-286.525736-127.011742-286.525736-283.119149c0-84.110653 37.19104-162.570609 102.377692-216.660528-117.01711-62.452377-194.688097-181.588755-203.479321-313.118394l-0.36225-5.482875c-0.007163-0.113587-0.016373-0.226151-0.022513-0.340761l-0.032746-0.499373 0.019443 0c-0.008186-0.267083-0.019443-0.533143-0.019443-0.802272 0-14.702863 11.918447-26.622334 26.622334-26.622334 14.702863 0 26.622334 11.918447 26.622334 26.622334 0 0.26913-0.01228 0.535189-0.019443 0.802272l0.553609 0 0.417509 5.467525c9.647731 124.997875 88.871073 234.450706 202.112184 279.552927 33.809013-15.705704 85.420485-32.060183 131.714857-32.060183 42.889833 0 84.540442 9.451256 124.198673 28.307719l29.048593 16.863063 23.720238 15.566534C758.567675 356.003366 798.515502 437.080939 798.515502 524.204206zM511.989767 298.068885c-126.247332 0-228.949412 101.461833-228.949412 226.157833 0 124.673487 102.701057 226.111784 228.949412 226.111784 126.259612 0 228.972948-101.438297 228.972948-226.111784C740.961692 399.530718 638.249379 298.068885 511.989767 298.068885z"  horiz-adv-x="1024" />

    
    <glyph glyph-name="31dingdan" unicode="&#58889;" d="M307.728128 604.464157c-14.691607 0-26.688849-11.981892-26.688849-26.688849l0-400.143423c0-56.547901 50.919716-108.000759 106.875123-108.000759l274.79967 0.267083 7.582699 0.592494 0 1.954515c9.568936 4.058432 15.966647 13.240559 15.966647 23.846104 0 10.663874-6.39771 19.905352-15.966647 23.992437l0 2.548032L375.91716 122.831792c-20.319791 0-42.063001 32.169677-42.063001 54.800094l-0.029676 396.130016c0.236384 0.858554 0.681522 2.28095 0.681522 4.013407C334.507028 592.482265 322.48011 604.464157 307.728128 604.464157M707.768197 68.564841c-10.07138 0-18.839067-6.220678-22.512736-15.581883l-1.094938-2.221598c-17.151635-34.834366-29.474288-29.828352-42.35976-28.791743-3.406586 0.236384-6.842849 0.473791-10.396791 0.473791L263.79964 22.443407c-21.712511 0-54.000891 32.790824-54.000891 54.769394L209.798748 557.055404c0 19.920702 26.038026 49.231261 47.217395 53.111638l6.220678 1.703805 0 0.089028c10.663874 3.539616 18.246573 13.493316 18.246573 25.208125 0 11.434423-7.286963 21.224394-17.624403 24.89704l0.384763 3.52529-8.590656-1.732457-0.88823 0c-1.777483 0-3.198855-0.400113-4.14746-0.696872-51.630914-5.317099-93.663216-52.933583-93.663216-106.104573l0-479.841579c0-56.487525 50.949392-107.940384 106.845447-107.940384l372.343263 0c51.127448 0 81.815377 21.090341 93.189426 62.946634 2.103918 3.90903 3.110851 7.671727 3.110851 11.522428C732.444203 57.455829 721.36589 68.564841 707.768197 68.564841M462.41314 395.453866l223.346811 0c17.86181 0 32.406061 13.981433 32.406061 31.17707 0 17.254989-14.544251 31.280424-32.406061 31.280424l-223.346811 0c-17.921161 0-32.465412-14.026458-32.465412-31.280424C429.947727 409.435299 444.491978 395.453866 462.41314 395.453866M691.506838 784.10556l-2.251274 2.606361-3.495614 0c-3.080152 0-297.845549 0.814552-297.875225 0.814552-52.903907 0-99.053993-40.033785-105.156992-91.056855-0.207731-0.903579-0.592494-2.207271-0.592494-4.294816l0.059352-7.583722 1.184989 0c3.37691-10.871605 13.566994-18.809391 25.415856-18.809391 13.685697 0 25.119097 10.56052 26.541493 23.934109l0.177032 0.666172c5.095042 20.779256 22.927175 43.943838 40.404222 43.943838L640.439766 734.325807c-0.267083-54.992475 0.059352-105.615433 0.059352-105.615433 0-56.932664 38.123272-95.144964 94.877881-95.144964l78.882582 0 0-356.022553c0.118704-15.996322-5.03569-29.680996-14.900362-39.603996-9.389858-9.478885-22.778796-15.077394-36.760229-15.077394l-0.029676 0-7.760754-0.089028 0-1.687432c-10.307763-3.643993-17.594727-13.477966-17.594727-24.76401 0-11.847839 8.027837-22.008246 19.135826-25.177426l0.236384-1.095961 7.019881-0.148379c1.629103 0 2.90312 0.325411 3.139503 0.533143 53.43705 3.821025 100.299357 53.911864 100.299357 107.170858l0 403.817092L691.506838 784.10556zM793.76071 586.187909l-58.384735 0c-20.439518 0-42.032302 43.973514-42.032302 67.611887L693.343673 707.903018 793.76071 586.187909zM462.41314 277.190369l223.346811 0c17.86181 0 32.406061 14.069437 32.406061 31.279401 0 17.240663-14.544251 31.222095-32.406061 31.222095l-223.346811 0c-17.921161 0-32.465412-13.981433-32.465412-31.222095C429.947727 291.259806 444.491978 277.190369 462.41314 277.190369"  horiz-adv-x="1024" />

    
    <glyph glyph-name="fanhui" unicode="&#58932;" d="M419.596985-106.471548l-0.264013 0.00614c-3.554966 0.069585-35.428907 1.157359-59.818387 17.557888-28.423353 19.113313-35.916001 51.04763-35.864836 66.952878L323.649749 175.093199l51.16531 0 0-196.898439c0.052189-1.348718 0.916882-16.349363 13.251815-24.64326 9.91379-6.667863 26.670429-8.656147 32.142048-8.855692l388.029524 0.363274c8.319479 0.098237 22.715351 3.046383 27.049053 8.134261 5.174859 6.072299 7.490601 22.732747 7.175423 32.42448l-0.021489 0.517793 0.004093 0.419556 0.029676 565.042053c-0.080841 4.316306-1.743714 17.97642-8.18338 25.159006-10.599406 11.821233-26.90579 14.622022-29.93273 15.044648l-388.150274 0.743944c-4.863774-0.01535-18.628266-1.549286-26.834158-8.511861-10.824533-9.188266-13.954827-23.484877-14.560624-26.897603l0-199.358467-51.16531 0L323.648726 560.108063l0.12075 1.237177c0.369414 3.805676 4.432962 37.872562 32.495088 61.691037 23.942295 20.323884 55.748698 20.742417 60.703547 20.667715l389.650441-0.743944 0.883113-0.064468c3.958148-0.280386 39.407522-3.575432 64.88273-31.985482 20.657482-23.039739 21.25407-55.552224 21.25407-59.183937l-0.029676-564.712549c0.277316-8.352225 0.207731-44.018539-19.374256-67.005067-21.62553-25.387203-61.429071-26.117844-65.896826-26.117844L419.596985-106.471548zM255.680728 315.360849 529.224802 315.360849 529.224802 220.875918 255.680728 220.875918 256.171915 108.131111 95.703177 268.153688 254.807848 429.448234Z"  horiz-adv-x="1024" />

    
    <glyph glyph-name="gouxuan" unicode="&#58937;" d="M413.294642 57.972405c-8.935049 0-17.866002 3.407729-24.682483 10.224211L125.306737 331.501013c-13.631939 13.631939-13.631939 35.734051 0 49.365991 13.631939 13.631939 35.734051 13.631939 49.365991 0l238.621914-238.621914 436.077685 436.055158c13.630916 13.630916 35.733027 13.631939 49.365991-0.001024 13.631939-13.631939 13.631939-35.734051-0.001024-49.365991l-460.760168-460.737641C431.161667 61.381158 422.226618 57.972405 413.294642 57.972405z"  horiz-adv-x="1024" />

    
    <glyph glyph-name="fenlei" unicode="&#59118;" d="M455.211623 279.210511c56.378032-110.245893 191.453427-153.914462 301.69932-97.53643 110.245893 56.378032 153.914462 191.453427 97.53643 301.69932C798.069341 593.619294 662.993946 637.287863 552.748053 580.909831 442.50216 524.531799 398.833591 389.456405 455.211623 279.210511zM570.58428 546.031463c90.983177 46.527686 202.458061 10.488889 248.984724-80.494289 46.527686-90.983177 10.488889-202.457038-80.494289-248.984724-90.983177-46.527686-202.458061-10.488889-248.984724 80.494289C443.562305 388.029916 479.601102 499.5048 570.58428 546.031463zM879.091656 10.281549l-63.35084 123.881448c-6.982018 13.653975-23.711028 19.062148-37.366026 12.08013l-6.444782-3.296069c-13.653975-6.982018-19.062148-23.712051-12.08013-37.366026l63.35084-123.881448c6.982018-13.653975 23.712051-19.062148 37.366026-12.08013l6.444782 3.295046C880.665501-20.101435 886.074697-3.372425 879.091656 10.281549zM134.301775 560.397658l302.591643 0c12.17632 0 22.047132 9.870812 22.047132 22.047132s-9.870812 22.047132-22.047132 22.047132l-302.591643 0c-12.17632 0-22.047132-9.870812-22.047132-22.047132S122.125455 560.397658 134.301775 560.397658zM134.301775 362.686714l224.027309 0c12.17632 0 22.047132 9.870812 22.047132 22.047132s-9.870812 22.047132-22.047132 22.047132L134.301775 406.780978c-12.17632 0-22.047132-9.870812-22.047132-22.047132S122.125455 362.686714 134.301775 362.686714zM134.301775 164.97577l288.98781 0c12.17632 0 22.047132 9.870812 22.047132 22.047132 0 12.17632-9.870812 22.047132-22.047132 22.047132L134.301775 209.070035c-12.17632 0-22.047132-9.870812-22.047132-22.047132C112.25362 174.847605 122.125455 164.97577 134.301775 164.97577zM729.026872 9.571375 132.512013 9.571375c-11.18883 0-20.258393-9.069563-20.258393-20.258393s9.069563-20.258393 20.258393-20.258393l596.514859 0c11.18883 0 20.258393 9.069563 20.258393 20.258393S740.214678 9.571375 729.026872 9.571375z"  horiz-adv-x="1024" />

    
    <glyph glyph-name="iconfontiocnnv2" unicode="&#58894;" d="M512 896C230.4 896 0 665.6 0 384s230.4-512 512-512 512 230.4 512 512S793.6 896 512 896zM704 192c19.2 0 32-12.8 32-32s-12.8-32-32-32l-160 0 0-64c0-19.2-12.8-32-32-32s-32 12.8-32 32l0 64-160 0c-19.2 0-32 12.8-32 32s12.8 32 32 32l160 0 0 67.2c-108.8 16-192 108.8-192 220.8 0 124.8 99.2 224 224 224s224-99.2 224-224c0-112-83.2-204.8-192-220.8L544 192 704 192zM672 480c0 89.6-70.4 160-160 160s-160-70.4-160-160 70.4-160 160-160S672 390.4 672 480z"  horiz-adv-x="1024" />

    
    <glyph glyph-name="fenlei1" unicode="&#58891;" d="M448.71115625 805.875L132.31165625000006 805.875c-23.31871875 0-42.18665625-18.869625-42.18665625-42.146156250000004l0-316.0299375c0-23.23434375 18.8679375-42.10396875000001 42.18665625-42.10396875000001l316.3995 0c23.277375 0 42.18665625 18.869625 42.18665625 42.10396875000001L490.89781250000004 763.7288437499999C490.89781250000004 787.005375 471.98853125 805.875 448.71115625 805.875zM448.71115625 363.49012500000003L132.31165625000006 363.49012500000003c-23.31871875 0-42.18665625-18.867093749999995-42.18665625-42.184124999999995l0-315.98859374999995c0-23.236874999999998 18.8679375-42.10396875000001 42.18665625-42.10396875000001l316.3995 0c23.277375 0 42.18665625 18.867093749999995 42.18665625 42.10396875000001L490.89781250000004 321.30600000000004C490.89781250000004 344.62303125000005 471.98853125 363.49012500000003 448.71115625 363.49012500000003zM838.1954375 88.53646875000004c-1.0352812500000002 1.0352812500000002-2.15071875 1.9389375-3.32521875 2.71434375 22.3711875 28.586249999999996 35.70665625 64.56459375 35.70665625 103.6580625 0 93.10781250000001-75.5578125 168.58124999999998-168.746625 168.58124999999998-93.18965625000001 0-168.74746875-75.47343749999999-168.74746875-168.58124999999998 0-93.06646875 75.5578125-168.49771875 168.74746875-168.49771875 39.15084375 0 75.1865625 13.31775 103.818375 35.660250000000005 0.7754062500000001-1.1753437500000001 1.6815937499999998-2.28909375 2.7185625-3.32184375l74.56978125-74.4845625c8.238375000000001-8.24175 21.58734375-8.24175 29.829093750000006 0 8.238375000000001 8.197031249999998 8.238375000000001 21.54515625 0 29.786906250000005L838.1954375 88.53646875000004zM701.83025 68.51596874999996c-69.91312500000001 0-126.559125 56.60381250000001-126.559125 126.39375 0 69.832125 56.645999999999994 126.397125 126.559125 126.397125 69.91228124999999 0 126.5608125-56.565000000000005 126.5608125-126.397125C828.3910625 125.11978124999996 771.743375 68.51596874999996 701.83025 68.51596874999996zM891.670625 805.875L575.2711250000001 805.875c-23.31871875 0-42.18834375-18.869625-42.18834375-42.146156250000004l0-316.0299375c0-23.23434375 18.869625-42.10396875000001 42.18834375-42.10396875000001l316.3995 0c23.276531249999998 0 42.18496875 18.869625 42.18496875 42.10396875000001L933.85559375 763.7288437499999C933.85559375 787.005375 914.94715625 805.875 891.670625 805.875z"  horiz-adv-x="1024" />

    
    <glyph glyph-name="xinyongqiahuankuan" unicode="&#60274;" d="M919.5-44.4l-815 0C46.8-44.4 0 2.4 0 60.1l0 397.1 1024 0 0-397.1C1024 2.4 977.2-44.4 919.5-44.4zM647.8 227.3 606 81l250.8 0 41.8 146.3L647.8 227.3zM0 707.9C0 765.6 46.8 812.4 104.5 812.4l815 0c57.7 0 104.5-46.8 104.5-104.5l0-104.5L0 603.4 0 707.9z"  horiz-adv-x="1024" />

    
    <glyph glyph-name="lianxikefulianxiqq" unicode="&#58900;" d="M512 896C229.668571 896 0 666.331429 0 384s229.668571-512 512-512 512 229.668571 512 512S794.331429 896 512 896zM779.702857 211.382857c-20.48-17.554286-46.811429 55.588571-49.737143 45.348571-7.314286-27.794286-20.48-54.125714-40.96-76.068571-1.462857-1.462857 30.72-13.165714 40.96-38.034286 8.777143-23.405714 26.331429-61.44-86.308571-73.142857-65.828571-7.314286-114.102857 35.108571-118.491429 33.645714-4.388571 0-10.24 0-14.628571 0-5.851429 0-10.24 0-16.091429 0-1.462857 0-23.405714-33.645714-121.417143-33.645714-76.068571 0-95.085714 46.811429-80.457143 73.142857 14.628571 26.331429 40.96 33.645714 36.571429 38.034286-16.091429 17.554286-29.257143 39.497143-36.571429 61.44-1.462857 4.388571-2.925714 10.24-4.388571 14.628571-2.925714 10.24-23.405714-61.44-46.811429-45.348571-23.405714 16.091429-20.48 58.514286-5.851429 99.474286 14.628571 40.96 52.662857 80.457143 52.662857 89.234286 1.462857 32.182857-2.925714 38.034286 0 45.348571 7.314286 19.017143 16.091429 11.702857 16.091429 21.942857C304.274286 590.262857 397.897143 691.2 512 691.2s207.725714-100.937143 207.725714-225.28c0-4.388571 13.165714 0 19.017143-21.942857 1.462857-14.628571 1.462857-30.72 0-45.348571-1.462857-11.702857 32.182857-26.331429 48.274286-89.234286C804.571429 247.954286 788.48 218.697143 779.702857 211.382857z"  horiz-adv-x="1024" />

    
    <glyph glyph-name="chongzhi" unicode="&#58888;" d="M739.142 626.079h74.878v-74.878c0-8.466 8.754-15.329 19.553-15.329 10.8 0 19.554 6.863 19.554 15.329l0 74.878h74.879c8.466 0 15.329 8.754 15.329 19.554 0 10.798-6.863 19.554-15.329 19.554h-74.879v74.878c0 8.466-8.754 15.331-19.554 15.331-10.799 0-19.553-6.865-19.553-15.331v-74.878h-74.878c-8.466 0-15.328-8.756-15.328-19.554 0-10.8 6.862-19.554 15.328-19.554zM665.122 360.179c13.395 0 24.256 9.114 24.256 20.356 0 11.244-10.861 20.358-24.256 20.358h-139.64v21.577l134.224 129.612c8.788 8.486 7.715 21.345-2.397 28.719-10.113 7.379-25.433 6.475-34.221-2.011l-121.943-117.759-114.37 117.57c-8.471 8.708-23.752 10.007-34.13 2.896-10.378-7.111-11.924-19.934-3.45-28.644l127.773-131.346v-20.612h-124.88c-13.397 0-24.257-9.114-24.257-20.358 0-11.241 10.86-20.356 24.257-20.356h124.88v-33.452l-124.88 0c-13.397 0-24.257-9.114-24.257-20.358s10.86-20.358 24.257-20.358h124.88v-106.432c0-11.244 10.86-20.356 24.257-20.356s24.256 9.112 24.256 20.356l0 106.432h139.64c13.395 0 24.256 9.114 24.256 20.358s-10.861 20.358-24.256 20.358l-139.64-0v33.452l139.64 0zM944.216 492.506c-2.792 11.070-14.032 17.778-25.097 14.989-11.070-2.794-17.779-14.031-14.987-25.099 8.205-32.533 12.366-66.212 12.366-100.097 0-224.911-182.98-407.894-407.892-407.894-224.913 0-407.893 182.981-407.893 407.894s182.979 407.894 407.892 407.894c59.886 0 117.571-12.673 171.452-37.669 10.355-4.804 22.646-0.304 27.449 10.050 4.804 10.356 0.305 22.646-10.051 27.45-59.371 27.542-122.91 41.508-188.849 41.508-119.995 0-232.808-46.729-317.657-131.576-84.851-84.849-131.578-197.662-131.578-317.658 0-119.993 46.728-232.806 131.578-317.656s197.661-131.579 317.657-131.579c119.994 0 232.806 46.729 317.657 131.579 84.848 84.849 131.577 197.663 131.577 317.656-0.001 37.294-4.584 74.371-13.623 110.206z"  horiz-adv-x="1024" />

    
    <glyph glyph-name="kehufuwukefu" unicode="&#59032;" d="M233.984 364.544c6.656 0 11.776 5.12 11.776 11.776L245.76 593.408c0 3.072-1.536 6.144-3.584 8.704 51.712 97.792 155.648 160.256 268.8 160.256s217.088-62.464 268.8-160.768c-2.048-2.048-3.584-5.12-3.584-8.192l0-217.088c0-6.656 5.12-11.776 11.776-11.776 67.584 0 122.368 53.76 122.368 120.32 0 41.984-22.528 81.408-59.392 102.912-51.2 140.288-187.904 234.496-340.48 234.496S221.696 728.064 169.472 587.776C133.12 565.76 110.592 526.848 110.592 484.864 111.104 418.304 166.4 364.544 233.984 364.544zM755.712 262.144c-4.608 2.048-9.728 1.536-13.312-2.048-62.976-57.856-144.896-89.6-231.424-89.6-86.016 0-168.448 31.744-231.424 89.088-3.584 3.072-8.704 4.096-13.312 2.048-123.904-62.464-192.512-170.496-192.512-304.128 0-6.656 5.12-11.776 11.776-11.776l853.504 0c6.656 0 11.776 5.12 11.776 11.776C950.272 91.648 881.152 199.68 755.712 262.144zM885.248 3.584 141.824 3.584c13.824 90.624 76.288 156.672 129.536 187.904 71.68-51.712 147.456-74.752 244.224-74.752 84.48 0 178.176 31.744 240.64 81.408C825.856 157.696 878.592 76.8 885.248 3.584zM510.976 713.216c-138.752 0-251.904-110.592-251.904-246.784s113.152-247.296 251.904-247.296 251.392 111.104 251.392 247.296C762.368 602.624 649.728 713.216 510.976 713.216zM699.392 466.944c0-101.888-84.48-184.32-188.416-184.32s-188.416 82.944-188.416 184.32c0 99.84 86.528 184.32 188.416 184.32C614.4 651.264 699.392 568.832 699.392 466.944z"  horiz-adv-x="1024" />

    
    <glyph glyph-name="shaixuan" unicode="&#58928;" d="M594.96407-48.881407c-0.266372 0.465847-0.400166 1.031432-0.76506 1.363485-7.369628 6.442799-10.429866 14.643167-10.395809 24.345679 0.099737 17.968561 0.03284 35.966314 0.03284 53.936091 0 123.189186 0.066897 246.378372-0.099737 369.567559-0.03284 11.688748 3.820433 20.791619 12.025666 28.959147 81.141318 80.941843 162.182898 162.049104 243.219613 243.090684 6.807692 6.841749 12.357719 14.415717 15.079823 23.946729 8.205233 28.297474-12.818701 57.727333-42.314241 59.019055-1.558094 0.066897-3.155111 0.066897-4.713205 0.066897L216.928555 755.413919c-22.01766 0-39.520374-11.721588-46.20157-31.419744-5.244733-15.507964-2.789001-30.123156 7.108121-43.241069 3.287688-4.31912 6.941486-8.337811 10.761919-12.158244 77.253988-77.354942 154.542033-154.708667 231.963872-231.931031 8.105496-8.066574 11.824975-17.136605 11.792134-28.596686-0.199475-83.930319-0.166635-167.894694-0.066897-251.790956 0-12.818701-4.617116-22.81556-16.111254-28.92509-18.329806-9.769409-41.215912 2.854682-42.9078 23.479666-0.166635 2.257473-0.166635 4.585492-0.166635 6.841749 0 79.246305-0.03284 158.463419 0.066897 237.675668 0 3.453107-0.997375 5.810317-3.421483 8.205233C293.484381 479.71029 217.16087 555.834325 141.136573 632.224732c-20.724722 20.790403-32.217644 46.200354-32.317381 75.928209-0.166635 49.783606 33.249075 91.171018 78.751267 102.725971 9.563853 2.428973 19.727347 3.588117 29.590412 3.620958 196.591118 0.166635 393.115338 0.166635 589.673615 0.099737 41.150231 0 72.669712-17.769086 94.126653-52.942365 21.323147-35.007861 18.362646-83.730844-6.841749-116.044576-4.386017-5.615708-9.104087-11.027075-14.149345-16.044357-77.786732-77.88647-155.607521-155.702393-233.493991-233.422229-2.522629-2.522629-3.554061-4.950385-3.554061-8.571343 0.066897-134.34519-0.03284-268.662405 0.199475-402.974754 0.034057-12.789509-1.325779-24.416225-11.288582-33.514231C619.508008-48.881407 607.254892-48.881407 594.96407-48.881407L594.96407-48.881407zM594.96407-48.881407"  horiz-adv-x="1024" />

    
    <glyph glyph-name="fenlei2" unicode="&#58980;" d="M281.51534374999994 358.10531249999997c53.082843749999995 0 106.17412499999999-0.31809375000000006 159.24768749999998 0.26240625000000006 11.329875 0.1130625 22.332375-10.580625000000001 22.29525-22.791375000000002-0.4311562499999999-106.85756249999999-0.28096875-213.71512499999997-0.1873125-320.5726875 0.00928125-7.435125000000001-1.6756875-13.858593749999997-7.725375-18.278156250000002-2.58440625-1.9102499999999996-5.6649375-3.5386874999999995-8.745468749999999-4.175718750000001-4.13859375-0.8429062500000001-8.4830625-0.8049375000000001-12.734718749999999-0.8049375000000001-103.48678124999999-0.03796875-206.97356249999999-0.03796875-310.4510625-0.07509374999999999-7.387875 0-14.41040625 0.99225-18.633374999999997 8.089875000000001-1.8916874999999997 3.1834687500000003-3.445875 6.836062500000001-4.1293125 10.46840625-0.712125 3.7454062500000003-0.19659375 7.716093749999999-0.19659375 11.6116875-0.00928125 104.59124999999999 0.15946875000000002 209.18334375-0.2716875 313.7754374999999-0.04725 12.5094375 11.11471875 22.866468750000003 22.27584375 22.753406249999998C175.34121875000005 357.7872187500001 228.4325 358.10531249999997 281.51534374999994 358.10531249999997L281.51534374999994 358.10531249999997zM280.99053125 29.984437500000013c45.66628125 0 91.32328125 0 136.98028125000002 0 5.9745937499999995 0 7.4165624999999995 1.6301249999999998 7.406437499999999 8.408812499999998-0.0185625 89.40374999999999-0.037125 178.7889375-0.04725 268.1926875 0 2.9024999999999994 0.15946875000000002 5.82440625-0.04640625 8.708343749999997-0.28096875 3.8019374999999997-2.2941562500000003 5.8809375-6.217593749999999 5.69278125-3.3150937500000004-0.15018749999999997-6.629343749999999-0.31809375000000006-9.9444375-0.31809375000000006-85.00274999999999-0.0185625-169.9970625-0.0185625-254.99053125000003 0-2.8468124999999995 0-5.693624999999999 0.07509374999999999-8.530312499999999 0.20587500000000003-7.01325 0.3560625-9.1395-1.7609062499999997-9.1395-8.877093750000002 0.0185625-91.01446874999999 0.0185625-182.02893749999998 0-273.02484375000006 0-7.191281249999999 1.62928125-8.9893125 8.51175-8.9893125C190.31356250000005 29.984437500000013 235.65246875000003 29.984437500000013 280.99053125 29.984437500000013L280.99053125 29.984437500000013zM280.99053125 29.984437500000013M280.0548125 440.91684375c-52.93265625 0-105.8653125 0.28096875-158.78868749999998-0.22443750000000004-11.4800625-0.1130625-21.22790625 8.670375-21.1899375 21.5544375 0.31809375000000006 107.34440624999999 0.16874999999999996 214.68965624999998 0.19659375 322.052625 0 11.292749999999998 4.278656249999999 18.240187499999998 12.69675 20.67440625 1.9288124999999998 0.5619375 4.0449375000000005 0.67415625 6.0766875 0.67415625C227.44025 805.6682812500001 335.83343749999995 805.5560624999999 444.22746874999996 805.85559375c10.534218749999999 0.0185625 18.436781249999996-10.01953125 18.511875-18.577687500000003 0.037125-4.2136875 0.037125-8.40796875 0.037125-12.621656250000001 0.00928125-102.6624375 0.0185625-205.32571875000002-0.00928125-307.98900000000003-0.00928125-6.25471875 0.11221875000000002-12.36009375-4.0921875000000005-17.959218749999998-3.2121562500000005-4.270218750000001-7.097624999999999-6.217593749999999-11.798156250000002-7.209843750000001-2.2941562500000003-0.4868437500000001-4.71065625-0.543375-7.069781249999998-0.5619375C386.5563125 440.91684375 333.31484375 440.91684375 280.0548125 440.91684375L280.0548125 440.91684375zM281.5617500000001 769.74984375l0-0.11221875000000002c-43.44721874999999 0-86.90371875-0.0185625-130.36021875 0-2.8366875 0-5.6834999999999996 0.16874999999999996-8.530312499999999 0.07509374999999999-3.5015625-0.13078125-5.5805625-2.04103125-5.936624999999999-5.65565625-0.19659375-1.9288124999999998-0.22443750000000004-3.8576249999999996-0.22443750000000004-5.804999999999999 0-60.639468750000006 0.0185625-121.25953125000001 0.0185625-181.89815625 0-29.251968750000003-0.04640625-58.5225-0.04640625-87.77446875000001 0-7.565906249999999 2.2190625-9.90646875 9.007874999999999-9.90646875 90.85584375 0 181.71084374999998 0 272.5666875-0.09365625 4.35375-0.0185625 6.4799999999999995 1.9102499999999996 7.02253125 6.0488437500000005 0.22443750000000004 1.7600625000000003 0.26240625000000006 3.5580937500000003 0.26240625000000006 5.3181562499999995 0.00928125 88.7675625 0 177.51571875-0.00928125 266.28328125 0 2.58440625-0.16874999999999996 5.1688125-0.28096875 7.753218749999999-0.19659375 4.2322500000000005-2.41565625 5.82440625-6.498562499999999 5.82440625C372.89515625 769.7304375 327.2280312500001 769.74984375 281.5617500000001 769.74984375L281.5617500000001 769.74984375zM281.5617500000001 769.74984375M714.10596875 805.6682812500001c51.509249999999994 0 103.01849999999999 0.0185625 154.52859375-0.0556875 4.67184375 0 9.541968749999999 0.13078125 13.979249999999999-1.1053125000000001 6.179625-1.704375 10.31821875-6.03028125 10.796625-13.146468749999999 0.46828125-7.060500000000001 1.5069375000000003-14.101593750000001 1.5170624999999995-21.162093749999997 0.1215-101.22131250000001 0.30881250000000005-202.42321875000002-0.10293750000000002-303.62596874999997-0.05653125-13.857750000000001-2.5287187500000003-20.262656250000003-13.605468750000002-24.60796875-1.7229375-0.6547499999999999-3.66103125-1.0859062499999999-5.50546875-1.0859062499999999-107.75699999999999-0.03796875-215.52328125000003-0.0185625-323.2794375 0-12.743999999999998 0-19.579218750000003 6.85378125-19.579218750000003 19.5885-0.010125 108.65559375000001-0.09365625 217.292625 0.064125 325.94821875 0.01940625 13.633312499999997 6.55678125 19.3455 20.0205 19.457718749999998 2.5287187500000003 0.0185625 5.0473125-0.20587500000000003 7.57603125-0.20587500000000003C611.7143749999999 805.64971875 662.90553125 805.6682812500001 714.10596875 805.6682812500001L714.10596875 805.6682812500001zM713.07659375 769.6933125l0-0.07509374999999999c-42.5115 0-85.012875 0-127.51425000000002 0-3.32353125 0-6.638625-0.07425-9.95371875-0.0185625-4.617 0.09365625-7.17271875-1.9667812500000001-7.2376875-6.8546249999999995-0.010125-1.4605312499999998-0.19659375-2.9024999999999994-0.19659375-4.363031250000001-0.0185625-89.74125-0.02784375-179.46393750000001-0.0185625-269.20518749999997 0-8.202093750000001 1.48921875-9.75628125 9.569812500000001-10.356187499999999 0.78721875-0.0556875 1.57275-0.09365625 2.36925-0.09365625 89.27381249999999-0.0185625 178.55521875-0.037125 267.82818749999996-0.0185625 7.884843749999999 0 10.16971875 2.4342187500000003 10.16971875 10.46840625-0.010125 14.06446875-0.03796875 28.12809375-0.03796875 42.1925625 0 75.67678125 0.010125 151.335 0.0185625 227.01178124999998 0 9.606937499999999-1.535625 11.329875-9.897187500000001 11.3113125C803.1452187499999 769.6747499999999 758.11428125 769.6933125 713.07659375 769.6933125L713.07659375 769.6933125zM713.07659375 769.6933125M513.4892187499998 181.0949999999999c1.134 19.51425 3.905718750000001 38.428593750000005 9.9815625 56.72446875 3.69984375 11.1054375 7.33134375 22.398187500000002 12.558374999999998 32.7729375 5.083593749999999 10.094625 11.53575 19.645031250000002 18.521156249999997 28.484156249999998 7.996218749999999 10.13175 16.61934375 19.945406249999998 26.133468749999995 28.5406875 8.29659375 7.4908125000000005 17.92209375 13.614749999999999 27.529031250000003 19.382625 9.326812499999999 5.5805625 19.177593749999996 10.393312500000002 29.159156249999995 14.66353125 7.387875 3.14634375 15.215343749999997 5.6379375 23.090062500000002 7.0419375 15.796687499999999 2.8282499999999997 31.60265625 6.8166562499999985 47.820375 4.943531249999999 13.76409375-1.59215625 27.80071875-2.5650000000000004 41.09737499999999-6.179625 14.007937499999999-3.819656249999999 27.819281250000003-9.3825 40.722750000000005-16.1611875 13.343062500000002-7.0419375 25.590937499999995-16.218562499999997 36.99590625-26.555343750000002 11.17040625-10.150312499999998 20.778187499999998-21.55528125 29.299218749999994-33.896812499999996 5.50546875-7.959093750000001 9.94359375-16.76109375 14.382562499999999-25.432312499999995 3.4931249999999996-6.8166562499999985 7.144875-13.76409375 9.148781249999999-21.1055625 3.38934375-12.37865625 6.3298125-25.00115625 7.9675312499999995-37.735875 1.5170624999999995-11.7601875 1.8081562500000001-23.84015625 1.32975-35.73196875-0.47671874999999997-12.17278125-1.37615625-24.4198125-5.5999687499999995-36.124312499999995-2.986875-8.29659375-4.9156875-16.96696875-7.76165625-25.3006875-1.75078125-5.11228125-3.9234374999999995-10.1874375-6.620906250000001-14.85084375-5.514749999999999-9.513281249999999-11.40496875-18.82153125-17.37871875-28.053843750000002-1.9667812500000001-3.0518437499999997-1.6858125000000002-5.224499999999998 0.739125-7.640999999999998 14.383406250000002-14.30746875 28.7465625-28.63434375 43.05403125-43.016062500000004 8.7361875-8.76403125 17.81915625-17.22853125 25.82465625-26.649 5.5341562500000006-6.517125 3.2121562500000005-18.0343125-3.3707812500000003-23.633437500000003-5.7493125-4.86928125-17.9870625-4.56975-23.41828125 0.74925-19.0366875 18.67134375-38.007562500000006 37.4169375-57.0526875 56.08828125-3.40875 3.3336562499999998-6.966843750000001 6.5356875-10.70296875 9.457593750000001-3.3058124999999996 2.62153125-6.676593749999999 1.3483125-9.5326875-1.0859062499999999-20.084625-17.0420625-43.100437500000005-27.84796875-68.16740625-34.964156249999995-20.440687499999996-5.8235625-41.18090625-6.010875-61.96837499999999-5.356124999999999-15.009468749999998 0.4868437500000001-29.860312499999992 3.6711562499999997-43.99059375 8.68978125-14.31675 5.09371875-28.484156249999998 11.16196875-40.871249999999996 20.44996875-10.890281250000001 8.18353125-21.957749999999997 16.23628125-32.0338125 25.41290625-6.75084375 6.1425-12.228468750000001 13.876312499999997-17.66896875 21.367124999999998-5.7121875 7.8654375000000005-11.011781249999997 16.068375-15.889500000000002 24.5143125-2.997 5.187375-5.094562499999999 10.99321875-7.200562500000001 16.667437500000002-2.62153125 7.060500000000001-5.02959375 14.21465625-7.163437499999999 21.4430625-1.72378125 5.8235625-3.2956875 11.7601875-4.25165625 17.771906249999997C516.3731562500001 158.17284375000008 515.03496875 169.65206249999994 513.4892187499998 181.0949999999999L513.4892187499998 181.0949999999999zM852.46325 181.45021874999998c0.8150624999999999 86.6885625-68.41040625000001 153.88228124999998-147.43012499999998 155.21203125000002-84.22565625 1.4234062499999998-158.32968749999998-70.32149999999999-154.07803124999998-162.9838125 3.4829999999999997-75.86409375000001 66.27571875-151.129125 159.303375-146.971125C784.1642187499999 30.00299999999993 852.0877812499999 92.04646875000003 852.46325 181.45021874999998L852.46325 181.45021874999998zM852.46325 181.45021874999998"  horiz-adv-x="1024" />

    
    <glyph glyph-name="caidan" unicode="&#58904;" d="M115.712 384m-115.712 0a22.6 22.6 0 1 0 231.424 0 22.6 22.6 0 1 0-231.424 0ZM540.16 384m-115.712 0a22.6 22.6 0 1 0 231.424 0 22.6 22.6 0 1 0-231.424 0ZM964.608 384m-115.712 0a22.6 22.6 0 1 0 231.424 0 22.6 22.6 0 1 0-231.424 0Z"  horiz-adv-x="1081" />

    
    <glyph glyph-name="daifahuo" unicode="&#59893;" d="M959.121875 103.53633c0-61.794391-50.101071-111.893416-111.893416-111.893416L175.870008-8.357086c-61.794391 0-111.893416 50.099025-111.893416 111.893416L63.976592 439.214533c0 20.487613 5.898337 39.433104 15.514345 55.946196 0 0 23.057135 72.78777 122.330116 260.145925 29.995151 47.560202 57.96825 47.560202 88.89154 47.560202 109.543905 0 332.48344 0 441.890222 0 30.706349 0 58.679447 0 91.214445-52.354392 98.479919-185.883571 119.7872-255.351736 119.7872-255.351736 9.614985-16.514115 15.518438-35.458583 15.518438-55.946196L959.122899 103.53633zM332.100212 746.921683c-25.104771 0-47.833425 0-72.201415-38.914288-22.127973-42.041512-57.476039-109.22975-82.553181-156.899446l194.338127 0 39.09132 195.813734C380.914988 746.921683 353.735975 746.921683 332.100212 746.921683zM545.722544 746.921683c-26.28055 0-52.886511 0-79.001285 0l-39.09132-195.813734 161.582095 0L545.722544 746.921683zM595.468528 495.161752 427.629939 495.161752l0-93.248777c0-25.746384 18.795065-46.615691 41.959647-46.615691l83.919295 0c23.165606 0 41.959647 20.869307 41.959647 46.615691L595.468528 495.161752zM765.273912 704.087109c-26.441209 42.834574-49.169863 42.834574-74.110905 42.834574-22.564925 0-51.822272 0-83.238796 0l43.491537-195.813734 194.33608 0C821.44012 597.31534 787.484773 661.867542 765.273912 704.087109zM903.174656 439.214533c0 30.895661-25.050536 55.946196-55.946196 55.946196L651.415748 495.160729l0-125.879965c0-38.627762-31.30703-69.931722-69.933769-69.931722l-139.865491 0c-38.628786 0-69.932746 31.304983-69.932746 69.931722L371.683742 495.161752 175.870008 495.161752c-30.896684 0-55.946196-25.050536-55.946196-55.946196l0-335.679225c0-30.896684 25.049512-55.946196 55.946196-55.946196L847.229482 47.590134c30.894637 0 55.946196 25.049512 55.946196 55.946196L903.175679 439.214533zM805.268812 103.53633 553.508881 103.53633c-7.732102 0-13.986549 6.254447-13.986549 13.986549l0 27.973098c0 7.716752 6.254447 13.987572 13.986549 13.987572l251.758907 0c7.730055 0 13.987572-6.27082 13.987572-13.987572l0-27.973098C819.256384 109.790778 812.997843 103.53633 805.268812 103.53633zM805.268812 187.456648 665.402297 187.456648c-7.732102 0-13.986549 6.254447-13.986549 13.986549L651.415748 229.415272c0 7.715729 6.254447 13.986549 13.986549 13.986549l139.866515 0c7.730055 0 13.987572-6.27082 13.987572-13.986549l0-27.973098C819.256384 193.711096 812.997843 187.456648 805.268812 187.456648z"  horiz-adv-x="1024" />

    
    <glyph glyph-name="icon1" unicode="&#58938;" d="M510.704494-65.061552c-246.805082 0-447.598224 200.783932-447.598224 447.598224 0 246.813269 200.793142 447.596178 447.598224 447.596178 246.813269 0 447.606411-200.783932 447.606411-447.596178C958.310905 135.72238 757.51674-65.061552 510.704494-65.061552zM510.704494 801.47516c-231.002165 0-418.939511-187.927113-418.939511-418.937464s187.936323-418.939511 418.939511-418.939511c231.010351 0 418.946674 187.92916 418.946674 418.939511S741.714845 801.47516 510.704494 801.47516zM235.836263 33.53093l-0.63445 28.659737c147.626245 3.227508 200.132086 28.565593 218.173998 49.238424 7.686053 8.824993 10.775414 18.769482 9.44 30.451546-6.418176 56.011688 17.380856 88.25402 74.903967 101.483322 64.204277 18.433838 68.916603 37.989219 68.813249 43.548842-0.261966 14.086833-24.759917 32.912597-51.40374 39.4812-41.777499 7.500834-73.729212 39.331797-94.877881 60.415998-5.785773 5.76633-13.313214 13.265118-17.781992 16.513092-2.714831-2.63092-6.559393-7.16519-9.329483-10.43056-11.391445-13.491269-25.552979-30.338982-43.585681-26.27134-16.727986 3.693112-23.790846 22.893406-27.652803 37.018102-5.728468 20.952194-14.368242 33.882692-23.715121 35.413558-9.320273 1.679245-20.59813-7.128351-26.934442-16.47523-34.873252-59.688427-156.23532-32.092929-214.563774-18.826787-8.861832 2.015913-15.635095 3.602038-19.469424 4.142343l3.992941 28.360931c4.300956-0.597611 11.903098-2.294252 21.838378-4.552689 43.548842-9.906627 159.222351-36.21583 183.964872 6.138814 11.110035 16.513092 32.016181 33.45495 55.843866 29.499871 14.983249-2.481518 35.235502-14.238282 46.693462-56.163137 2.564405-9.404184 4.952802-13.808494 6.277984-15.728216 4.252861 2.741437 11.372002 11.156084 15.430434 15.95232 10.06524 11.885701 19.041682 22.109554 31.000038 21.811772 12.400425-0.372483 22.671349-10.615779 38.222533-26.102495 19.73139-19.665899 46.758953-46.607504 80.615039-52.691059 35.935444-8.844435 73.495898-35.189454 74.092485-66.9846 0.559748-30.319539-29.825282-54.464449-90.314958-71.797209-50.154283-11.567453-57.599859-35.526121-53.587476-70.50989 2.275833-19.834744-3.219321-37.522592-16.316617-52.523237C442.759009 55.679369 364.53339 36.347069 235.836263 33.53093zM801.467741 261.350612c-21.838378-0.019443-42.186821 9.216919-58.428737 26.792203-18.181081 19.648502-29.451776 48.568159-25.12319 64.447824 9.572006 31.141254 1.035586 38.996153-11.885701 50.862411-3.25616 3.003404-6.465249 5.970992-9.356089 9.18008-29.797653 36.290531-39.668465 72.785723-29.797653 108.984157 24.788569 90.940199 167.917384 144.378272 173.998893 146.617265l9.880021-26.90579c-1.352811-0.50449-135.375224-50.601468-156.245554-127.288035-7.368828-27.093055 0.437975-54.147224 23.873734-82.712817 1.857301-2.034333 4.450359-4.384867 7.04444-6.773264 14.673188-13.491269 34.769898-31.962969 20.009729-79.951937-0.475837-4.53427 6.268774-25.562189 21.915126-40.302915 12.69616-11.977799 27.501354-16.437367 43.930535-13.359262 54.986335 10.413164 60.034305 50.285267 58.150398 73.123414-4.992711 60.58382 18.928095 102.770642 63.96994 112.864534l6.268774-27.950586c-42.960441-9.646708-43.455721-60.956304-41.673122-82.563414 4.477988-54.389748-25.934672-93.143377-81.379449-103.628172C811.515584 261.816217 806.450219 261.350612 801.467741 261.350612z"  horiz-adv-x="1024" />

    
    <glyph glyph-name="pailiefangshi02" unicode="&#58935;" d="M355.663372 831.977871 173.20583 831.977871c-60.3239 0-109.224634-49.052183-109.224634-109.560278l0-183.01729c0-60.508096 48.900733-109.559255 109.224634-109.559255l182.457542 0c60.3239 0 109.224634 49.052183 109.224634 109.559255L464.888006 722.417593C464.889029 782.925688 415.987273 831.977871 355.663372 831.977871zM404.019707 539.400303c0-26.745131-21.696138-48.50369-48.356334-48.50369L173.20583 490.896612c-26.660196 0-48.356334 21.75856-48.356334 48.50369L124.849496 722.417593c0 26.745131 21.696138 48.504714 48.356334 48.504714l182.457542 0c26.660196 0 48.356334-21.759583 48.356334-48.504714L404.019707 539.400303zM355.663372 338.663442 173.20583 338.663442c-60.3239 0-109.224634-49.052183-109.224634-109.559255l0-183.01729c0-60.508096 48.900733-109.560278 109.224634-109.560278l182.457542 0c60.3239 0 109.224634 49.052183 109.224634 109.560278L464.888006 229.104187C464.889029 289.612283 415.987273 338.663442 355.663372 338.663442zM404.019707 46.086897c0-26.745131-21.696138-48.504714-48.356334-48.504714L173.20583-2.417817c-26.660196 0-48.356334 21.759583-48.356334 48.504714L124.849496 229.104187c0 26.745131 21.696138 48.50369 48.356334 48.50369l182.457542 0c26.660196 0 48.356334-21.75856 48.356334-48.50369L404.019707 46.086897zM850.223165 831.310675 667.7646 831.310675c-60.3239 0-109.224634-49.052183-109.224634-109.560278l0-183.01729c0-60.508096 48.900733-109.559255 109.224634-109.559255l182.457542 0c60.3239 0 109.224634 49.052183 109.224634 109.559255L959.446775 721.750397C959.447798 782.258493 910.547065 831.310675 850.223165 831.310675zM898.579499 538.733107c0-26.745131-21.696138-48.50369-48.356334-48.50369L667.7646 490.229416c-26.660196 0-48.356334 21.75856-48.356334 48.50369L619.408265 721.750397c0 26.745131 21.696138 48.504714 48.356334 48.504714l182.457542 0c26.660196 0 48.356334-21.759583 48.356334-48.504714L898.578476 538.733107zM850.223165 338.663442 667.7646 338.663442c-60.3239 0-109.224634-49.052183-109.224634-109.559255l0-183.01729c0-60.508096 48.900733-109.560278 109.224634-109.560278l182.457542 0c60.3239 0 109.224634 49.052183 109.224634 109.560278L959.446775 229.104187C959.447798 289.61126 910.547065 338.663442 850.223165 338.663442zM898.579499 46.086897c0-26.745131-21.696138-48.504714-48.356334-48.504714L667.7646-2.417817c-26.660196 0-48.356334 21.759583-48.356334 48.504714L619.408265 229.104187c0 26.745131 21.696138 48.50369 48.356334 48.50369l182.457542 0c26.660196 0 48.356334-21.75856 48.356334-48.50369L898.578476 46.086897z"  horiz-adv-x="1024" />

    
    <glyph glyph-name="pailiefangshi01" unicode="&#58936;" d="M558.623877 779.498636l400.756383 0 0-61.055564-400.756383 0 0 61.055564ZM558.623877 543.52525l400.756383 0 0-61.055564-400.756383 0 0 61.055564ZM558.623877 286.18523l400.756383 0 0-61.055564-400.756383 0 0 61.055564ZM558.623877 50.210821l400.756383 0 0-61.055564-400.756383 0 0 61.055564ZM356.557742 831.39254 173.540452 831.39254c-60.509119 0-109.560278-49.052183-109.560278-109.560278l0-183.01729c0-60.508096 49.051159-109.559255 109.560278-109.559255l183.01729 0c60.509119 0 109.560278 49.052183 109.560278 109.559255L466.11802 721.832262C466.11802 782.340357 417.066861 831.39254 356.557742 831.39254zM405.062456 538.814971c0-26.745131-21.762653-48.50369-48.504714-48.50369L173.540452 490.311281c-26.742061 0-48.504714 21.75856-48.504714 48.50369L125.035738 721.832262c0 26.745131 21.762653 48.504714 48.504714 48.504714l183.01729 0c26.742061 0 48.504714-21.759583 48.504714-48.504714L405.062456 538.814971zM356.557742 338.745307 173.540452 338.745307c-60.509119 0-109.560278-49.052183-109.560278-109.559255l0-183.01729c0-60.508096 49.051159-109.560278 109.560278-109.560278l183.01729 0c60.509119 0 109.560278 49.052183 109.560278 109.560278L466.11802 229.185029C466.11802 289.693124 417.066861 338.745307 356.557742 338.745307zM405.062456 46.168762c0-26.745131-21.762653-48.504714-48.504714-48.504714L173.540452-2.335952c-26.742061 0-48.504714 21.759583-48.504714 48.504714L125.035738 229.185029c0 26.745131 21.762653 48.50369 48.504714 48.50369l183.01729 0c26.742061 0 48.504714-21.75856 48.504714-48.50369L405.062456 46.168762z"  horiz-adv-x="1024" />

    
    <glyph glyph-name="tuihuanhuo" unicode="&#58895;" d="M729.890988 304.869023L587.338506 161.260915h-28.510087v28.722031l114.042395 114.886077H287.97901v28.721007h441.911978v-28.721007z m0 129.247092H287.97901v28.721007l142.553506 143.609132H459.041579v-28.722031L345.001232 462.837122h384.889756v-28.721007z m-220.954453-502.628378c-247.99936 0-449.040267 202.530661-449.040267 452.365847 0 249.83621 201.041931 452.366871 449.040267 452.366871 110.263235 0 211.261331-40.038012 289.40733-106.486121 18.434031-15.653159-21.068488-19.688291-21.068488-19.688291-72.815653 60.861791-166.330171 97.453405-268.338842 97.453405-232.247908 0-420.530181-189.677828-420.530181-423.645864 0-233.965988 188.283296-423.64484 420.530181-423.644839 232.244837 0 420.528133 189.678852 420.528133 423.644839 0 83.164062-23.793047 160.741805-64.888733 226.183436 0 0 15.052138 30.359224 27.696099 9.521109 41.682372-68.644344 65.702721-149.353128 65.702721-235.704545-0.001024-249.835186-201.040907-452.365847-449.03822-452.365847z"  horiz-adv-x="1024" />

    
    <glyph glyph-name="quanbudingdan-01" unicode="&#58897;" d="M278.05 479.125c-12.15 0-22-8.955-22-20s9.85-20 22-20h468.098c12.151 0 22.001 8.955 22.001 20s-9.85 20-22.001 20H278.05zM746.148 323.602H278.05c-12.15 0-22-8.953-22-20 0-11.045 9.85-20 22-20h468.098c12.151 0 22.001 8.955 22.001 20 0 11.046-9.849 20-22.001 20zM746.148 168.079H278.05c-12.15 0-22-8.954-22-20s9.85-20 22-20h468.098c12.151 0 22.001 8.954 22.001 20s-9.849 20-22.001 20zM896.306 649.125L700.485 831.931v0.232H158.094c-16.565 0-29.994-13.435-29.994-30.007V-33.83c0-16.572 13.429-30.007 29.994-30.007h708.012c16.564 0 29.994 13.435 29.994 30.007V649.118l0.206 0.007z m-57.599 0H700.485V777.368l138.222-128.243zM856.1 3.49c0-15.092-12.031-27.327-26.87-27.327H194.97c-14.84 0-26.87 12.235-26.87 27.327V764.835c0 15.093 12.03 27.328 26.87 27.328h465.516v-183.039H856.1V3.49z"  horiz-adv-x="1024" />

    
    <glyph glyph-name="icon09" unicode="&#58893;" d="M511.994 171.641c-116.513 0-211.294 94.942-211.294 211.64s94.78 211.632 211.294 211.632c116.515 0 211.307-94.934 211.307-211.632s-94.793-211.64-211.307-211.64M511.994 525.138c-78.093 0-141.632-63.641-141.632-141.857 0-78.225 63.539-141.867 141.632-141.867 78.105 0 141.645 63.642 141.645 141.867 0 78.216-63.54 141.857-141.645 141.857M591.781 826.227v-46.588c0-34.208 20.397-64.759 51.94-77.851 9.478-4.057 20.507-6.415 32.087-6.415 0.038 0 0.075 0 0.113 0 22.469-0 43.596 8.765 59.48 24.679l29.818 29.861 112.827-113.009-29.809-29.861c-24.146-24.188-31.303-60.236-18.233-91.831 13.061-31.605 43.57-52.021 77.717-52.021h45.076v-159.829h-45.076c-34.146 0-64.656-20.415-77.717-52.011-13.072-31.605-5.914-67.651 18.233-91.839l29.809-29.864-112.827-113.010-29.818 29.864c-15.884 15.912-37.011 24.678-59.486 24.678-0.030 0-0.066 0-0.102 0-11.582 0-22.612-2.359-32.638-6.621-30.996-12.873-51.394-43.436-51.394-77.642v-45.137h-159.564v45.137c0 34.209-20.387 64.771-51.93 77.85-9.482 4.057-20.516 6.415-32.1 6.415-0.037 0-0.073-0-0.11-0-22.458 0-43.596-8.765-59.477-24.678l-29.822-29.864-112.825 113.010 29.811 29.864c24.146 24.188 31.303 60.233 18.233 91.827-13.061 31.607-43.57 52.022-77.718 52.022h-45.064v159.827h45.066c34.148 0 64.659 20.415 77.718 52.021 13.071 31.595 5.914 67.642-18.233 91.831l-29.811 29.861 112.825 113.009 29.822-29.861c15.882-15.914 37.019-24.679 59.483-24.679 0.033-0 0.072-0 0.11-0 11.578 0 22.606 2.359 32.628 6.621 31.010 12.886 51.396 43.437 51.396 77.645v46.588h159.562zM591.781 896h-159.564c-38.317 0-69.663-35.753-69.663-74.13v-42.231c0-5.872-3.53-11.149-8.933-13.396-1.786-0.74-3.667-1.097-5.539-1.097-0.003-0-0.007-0-0.012-0-3.992 0-7.605 1.622-10.217 4.242l-29.821 29.861c-13.542 13.573-31.398 20.354-49.256 20.354-17.857 0-35.703-6.78-49.255-20.354l-112.835-113.009c-27.084-27.134-27.084-71.549 0-98.675l29.821-29.861c2.617-2.627 4.236-6.251 4.236-10.253 0-2.001-0.404-3.907-1.136-5.642-2.192-5.197-7.335-8.846-13.33-8.847l-42.168 0c-38.304 0-72.556-31.396-72.556-69.773v-159.829c0-38.376 34.252-69.773 72.556-69.773h42.171c5.995-0.002 11.137-3.651 13.329-8.849 2.271-5.506 1.038-11.745-3.1-15.893l-29.821-29.862c-27.084-27.134-27.084-71.539 0-98.675l112.835-113.007c13.552-13.563 31.398-20.354 49.255-20.354 17.859 0 35.715 6.79 49.256 20.354l29.821 29.861c2.619 2.622 6.238 4.244 10.236 4.244 1.996 0 3.897-0.404 5.626-1.135 5.195-2.21 8.837-7.361 8.838-13.362l-0-42.231c0-38.367 31.346-72.678 69.663-72.678h159.562c38.315 0 69.662 34.312 69.662 72.678v42.231c0 5.864 3.52 11.149 8.933 13.397 1.63 0.694 3.526 1.097 5.516 1.097 0.008 0 0.016-0 0.023-0 3.995-0.001 7.612-1.623 10.23-4.244l29.809-29.859c13.553-13.563 31.409-20.354 49.265-20.354 17.847 0 35.716 6.79 49.258 20.354l112.834 113.007c27.084 27.135 27.084 71.541 0 98.675l-29.819 29.862c-2.618 2.627-4.236 6.25-4.236 10.252 0 2.001 0.405 3.908 1.137 5.642 2.191 5.197 7.334 8.846 13.328 8.848l42.171-0c38.304 0 72.556 31.396 72.556 69.773v159.83c0 38.376-34.252 69.773-72.556 69.773h-42.173c-5.995 0.002-11.137 3.651-13.328 8.849-0.731 1.733-1.135 3.639-1.135 5.64 0 4.002 1.618 7.626 4.236 10.253l29.819 29.861c27.084 27.124 27.084 71.541 0 98.675l-112.834 113.009c-13.542 13.573-31.411 20.354-49.258 20.354-17.857 0-35.713-6.78-49.265-20.354l-29.812-29.861c-2.61-2.621-6.222-4.242-10.213-4.242-0.006 0-0.011 0-0.017 0-1.871-0-3.75 0.355-5.536 1.097-5.29 2.237-8.934 7.383-8.934 13.381 0 0.005 0 0.010 0 0.014l-0 42.232c-0 38.376-31.345 74.129-69.66 74.129z"  horiz-adv-x="1024" />

    
    <glyph glyph-name="daichuli" unicode="&#58899;" d="M512 830.72c-247.424 0-448-200.576-448-448s200.576-448 448-448 448 200.576 448 448-200.576 448-448 448zM448 320V704h64v-320h320v-64H448z"  horiz-adv-x="1024" />

    
    <glyph glyph-name="message_light" unicode="&#59355;" d="M341.333333 490.666667h341.333334c12.8 0 21.333333 8.533333 21.333333 21.333333s-8.533333 21.333333-21.333333 21.333333H341.333333c-12.8 0-21.333333-8.533333-21.333333-21.333333s10.666667-21.333333 21.333333-21.333333zM341.333333 362.666667h256c12.8 0 21.333333 8.533333 21.333334 21.333333s-8.533333 21.333333-21.333334 21.333333H341.333333c-12.8 0-21.333333-8.533333-21.333333-21.333333s10.666667-21.333333 21.333333-21.333333zM957.866667 448c0 211.2-200.533333 381.866667-445.866667 381.866667-247.466667 0-448-170.666667-448-381.866667 0-108.8 66.133333-217.6 181.333333-294.4 10.666667-6.4 23.466667-4.266667 29.866667 6.4 6.4 10.666667 4.266667 23.466667-6.4 29.866667C209.066667 230.4 106.666667 317.866667 106.666667 448c0 187.733333 181.333333 339.2 405.333333 339.2 221.866667 0 403.2-151.466667 403.2-339.2S733.866667 108.8 512 108.8c-2.133333 0-4.266667 0-6.4-2.133333-10.666667 4.266667-21.333333-2.133333-25.6-12.8-8.533333-25.6-70.4-66.133333-125.866667-96 23.466667 76.8 12.8 89.6 8.533334 96-4.266667 6.4-12.8 10.666667-21.333334 10.666666-12.8 0-21.333333-8.533333-21.333333-21.333333 0-6.4 2.133333-10.666667 6.4-14.933333 0-17.066667-14.933333-66.133333-27.733333-104.533334-2.133333-8.533333 0-17.066667 6.4-23.466666 4.266667-4.266667 8.533333-6.4 14.933333-6.4 2.133333 0 6.4 0 8.533333 2.133333 25.6 10.666667 151.466667 68.266667 185.6 128 245.333333 2.133333 443.733333 172.8 443.733334 384z"  horiz-adv-x="1024" />

    
    <glyph glyph-name="edit_light" unicode="&#59358;" d="M832 618.666667c-12.8 0-21.333333-8.533333-21.333333-21.333334v-554.666666c0-23.466667-19.2-42.666667-42.666667-42.666667H192c-23.466667 0-42.666667 19.2-42.666667 42.666667V682.666667c0 23.466667 19.2 42.666667 42.666667 42.666666h490.666667c12.8 0 21.333333 8.533333 21.333333 21.333334s-8.533333 21.333333-21.333333 21.333333H192c-46.933333 0-85.333333-38.4-85.333333-85.333333v-640c0-46.933333 38.4-85.333333 85.333333-85.333334h576c46.933333 0 85.333333 38.4 85.333333 85.333334V597.333333c0 12.8-8.533333 21.333333-21.333333 21.333334zM910.933333 825.6c-8.533333 8.533333-21.333333 8.533333-29.866666 0L563.2 507.733333c-8.533333-8.533333-8.533333-21.333333 0-29.866666 4.266667-4.266667 10.666667-6.4 14.933333-6.4s10.666667 2.133333 14.933334 6.4L910.933333 793.6c8.533333 8.533333 8.533333 23.466667 0 32zM448 512h-192c-12.8 0-21.333333-8.533333-21.333333-21.333333s8.533333-21.333333 21.333333-21.333334h192c12.8 0 21.333333 8.533333 21.333333 21.333334s-8.533333 21.333333-21.333333 21.333333zM704 341.333333H256c-12.8 0-21.333333-8.533333-21.333333-21.333333s8.533333-21.333333 21.333333-21.333333h448c12.8 0 21.333333 8.533333 21.333333 21.333333s-8.533333 21.333333-21.333333 21.333333zM704 172.8H256c-12.8 0-21.333333-8.533333-21.333333-21.333333s8.533333-21.333333 21.333333-21.333334h448c12.8 0 21.333333 8.533333 21.333333 21.333334s-8.533333 21.333333-21.333333 21.333333z"  horiz-adv-x="1024" />

    
    <glyph glyph-name="favor_light" unicode="&#59361;" d="M736-21.333333c-6.4 0-14.933333 2.133333-21.333333 6.4L512 98.133333l-202.666667-110.933333c-14.933333-8.533333-32-8.533333-44.8 2.133333-12.8 10.666667-21.333333 25.6-17.066666 42.666667l38.4 238.933333-166.4 172.8c-10.666667 10.666667-14.933333 27.733333-10.666667 42.666667 4.266667 14.933333 17.066667 25.6 34.133333 27.733333l151.466667 19.2c12.8 2.133333 23.466667-6.4 23.466667-19.2 2.133333-12.8-6.4-23.466667-19.2-23.466666l-149.333334-19.2 174.933334-179.2c4.266667-4.266667 6.4-10.666667 6.4-19.2l-40.533334-249.6 213.333334 117.333333c6.4 4.266667 14.933333 4.266667 21.333333 0l213.333333-117.333333-40.533333 251.733333c-2.133333 6.4 2.133333 12.8 6.4 19.2l170.666667 174.933333-238.933334 36.266667c-6.4 2.133333-12.8 6.4-17.066666 12.8L512 746.666667l-110.933333-226.133334c-4.266667-10.666667-17.066667-14.933333-27.733334-10.666666-10.666667 4.266667-14.933333 17.066667-10.666666 27.733333l110.933333 226.133333C482.133333 778.666667 497.066667 789.333333 512 789.333333c17.066667 0 32-8.533333 38.4-25.6l100.266667-215.466666L881.066667 512c17.066667-2.133333 29.866667-12.8 34.133333-29.866667 4.266667-14.933333 2.133333-32-10.666667-42.666666l-166.4-170.666667 38.4-241.066667c2.133333-17.066667-4.266667-32-17.066666-40.533333-6.4-4.266667-14.933333-8.533333-23.466667-8.533333z"  horiz-adv-x="1024" />

    
    <glyph glyph-name="cuowutishi" unicode="&#59201;" d="M547.076 620.47v-397.45c0-14.278-11.671-25.949-26.075-25.949s-26.075 11.548-26.075 25.949v397.45c0 14.278 11.671 25.949 26.075 25.949s26.075-11.671 26.075-25.949zM521.001 808.579c-237.526 0-430.228-192.579-430.228-430.228s192.579-430.228 430.228-430.228 430.103 192.579 430.103 430.228-192.579 430.228-430.103 430.228zM788.326 111.025c-34.766-34.766-75.118-61.957-120.19-81.079-46.561-19.742-96.102-29.676-147.134-29.676s-100.573 9.934-147.134 29.676c-45.072 18.997-85.425 46.314-120.19 81.079s-61.957 75.118-81.079 120.19c-19.742 46.561-29.676 96.102-29.676 147.134s9.934 100.573 29.676 147.134c18.997 45.072 46.314 85.425 81.079 120.19s75.118 61.957 120.19 81.079c46.561 19.742 96.102 29.676 147.134 29.676s100.573-9.934 147.134-29.676c45.072-18.997 85.425-46.314 120.19-81.079s61.957-75.118 81.079-120.19c19.742-46.561 29.676-96.102 29.676-147.134s-9.934-100.573-29.676-147.134c-19.12-45.072-46.437-85.425-81.079-120.19zM494.928 138.342c0-0.001 0-0.003 0-0.005 0-14.401 11.674-26.075 26.075-26.075 14.401 0 26.075 11.674 26.075 26.075 0 0.002 0 0.003 0 0.005 0 0.001 0 0.003 0 0.004 0 14.401-11.674 26.075-26.075 26.075-14.401 0-26.075-11.674-26.075-26.075 0-0.002 0-0.003 0-0.005z"  horiz-adv-x="1024" />

    
    <glyph glyph-name="message_fill_light" unicode="&#59368;" d="M512 832C264.533333 832 64 661.333333 64 450.133333c0-204.8 226.133333-339.2 268.8-362.666666-2.133333-21.333333-19.2-76.8-36.266667-121.6-2.133333-8.533333 0-17.066667 4.266667-23.466667 4.266667-4.266667 8.533333-6.4 14.933333-6.4 2.133333 0 6.4 0 8.533334 2.133333 27.733333 12.8 153.6 70.4 192 130.133334C761.6 70.4 960 241.066667 960 450.133333 960 661.333333 759.466667 832 512 832z m85.333333-469.333333H341.333333c-12.8 0-21.333333 8.533333-21.333333 21.333333s8.533333 21.333333 21.333333 21.333333h256c12.8 0 21.333333-8.533333 21.333334-21.333333s-10.666667-21.333333-21.333334-21.333333z m85.333334 128H341.333333c-12.8 0-21.333333 8.533333-21.333333 21.333333s8.533333 21.333333 21.333333 21.333333h341.333334c12.8 0 21.333333-8.533333 21.333333-21.333333s-8.533333-21.333333-21.333333-21.333333z"  horiz-adv-x="1024" />

    
    <glyph glyph-name="favor_fill_light" unicode="&#59372;" d="M915.2 482.133333c-4.266667 14.933333-19.2 25.6-34.133333 29.866667l-228.266667 34.133333-100.266667 215.466667c-6.4 14.933333-21.333333 25.6-38.4 25.6s-32-8.533333-38.4-23.466667l-106.666666-215.466666L142.933333 512c-14.933333-2.133333-27.733333-12.8-34.133333-27.733333-4.266667-14.933333-2.133333-32 10.666667-42.666667l166.4-172.8-38.4-238.933333c-2.133333-17.066667 4.266667-32 17.066666-42.666667 12.8-8.533333 32-10.666667 44.8-2.133333l202.666667 110.933333 202.666667-113.066667c6.4-4.266667 12.8-6.4 21.333333-6.4s17.066667 2.133333 23.466667 8.533334c12.8 8.533333 19.2 25.6 17.066666 40.533333l-38.4 241.066667 166.4 170.666666c10.666667 12.8 14.933333 29.866667 10.666667 44.8z"  horiz-adv-x="1024" />

    
    <glyph glyph-name="nan" unicode="&#58931;" d="M512 896C230.4 896 0 665.6 0 384s230.4-512 512-512 512 230.4 512 512S793.6 896 512 896z m288-480c0-19.2-12.8-32-32-32s-32 12.8-32 32V563.2L614.4 441.6h-3.2c38.4-38.4 60.8-92.8 60.8-150.4 0-124.8-99.2-224-224-224s-224 99.2-224 224 99.2 224 224 224c41.6 0 83.2-12.8 115.2-32 0 3.2 3.2 6.4 6.4 6.4L691.2 608H544c-19.2 0-32 12.8-32 32s12.8 32 32 32h224c19.2 0 32-12.8 32-32v-224zM448 448c-89.6 0-160-70.4-160-160s70.4-160 160-160 160 70.4 160 160-70.4 160-160 160z"  horiz-adv-x="1024" />

    
    <glyph glyph-name="delete_light" unicode="&#59373;" d="M789.333333 552.533333c-12.8 0-21.333333-8.533333-21.333333-21.333333v-490.666667c0-23.466667-19.2-42.666667-42.666667-42.666666H298.666667c-23.466667 0-42.666667 19.2-42.666667 42.666666V533.333333c0 12.8-8.533333 21.333333-21.333333 21.333334s-21.333333-8.533333-21.333334-21.333334v-490.666666c0-46.933333 38.4-85.333333 85.333334-85.333334h426.666666c46.933333 0 85.333333 38.4 85.333334 85.333334V533.333333c0 10.666667-10.666667 19.2-21.333334 19.2zM915.2 661.333333H746.666667V725.333333c0 46.933333-38.4 85.333333-85.333334 85.333334H362.666667c-46.933333 0-85.333333-38.4-85.333334-85.333334v-64H106.666667c-12.8 0-21.333333-8.533333-21.333334-21.333333s8.533333-21.333333 21.333334-21.333333h808.533333c12.8 0 21.333333 8.533333 21.333333 21.333333s-8.533333 21.333333-21.333333 21.333333zM320 725.333333c0 23.466667 19.2 42.666667 42.666667 42.666667h298.666666c23.466667 0 42.666667-19.2 42.666667-42.666667v-64H320V725.333333zM640 192V531.2c0 12.8-8.533333 21.333333-21.333333 21.333333s-21.333333-8.533333-21.333334-21.333333V192c0-12.8 8.533333-21.333333 21.333334-21.333333s21.333333 10.666667 21.333333 21.333333zM426.666667 192V533.333333c0 12.8-8.533333 21.333333-21.333334 21.333334s-21.333333-8.533333-21.333333-21.333334v-341.333333c0-12.8 8.533333-21.333333 21.333333-21.333333s21.333333 10.666667 21.333334 21.333333z"  horiz-adv-x="1024" />

    
    <glyph glyph-name="yizhuanzhangjine" unicode="&#58926;" d="M832.7673828125 777.67265625c35.76533203125 0 65.71318359374999-29.953125 65.71318359374999-65.71318359374999v-622.212890625c0-35.76533203125-29.953125-65.71318359374999-65.71318359374999-65.71318359374999h-622.212890625c-35.76533203125 0-65.71318359374999 29.953125-65.71318359374999 65.71318359374999v622.212890625c0 35.76533203125 29.953125 65.71318359374999 65.71318359374999 65.71318359374999h622.212890625zM832.7673828125 816.7716796875h-622.212890625c-57.40224609375 0-104.818359375-47.40820312499999-104.818359375-104.818359375v-622.212890625c0-57.40224609375 47.40820312499999-104.818359375 104.818359375-104.818359375h622.212890625c57.40224609375 0 104.818359375 47.40820312499999 104.818359375 104.818359375v622.212890625c-1.6672851562500002 57.40224609375-49.080761718750004 104.818359375-104.818359375 104.818359375zM713.814453125 503.99970703125007h-322.7642578125l73.19794921875001 73.19794921875001c5.8262695312499995 5.8262695312499995 5.8262695312499995 14.145117187500002 0 17.462109374999997l-17.462109374999997 17.462109374999997c-1.6672851562500002 5.8262695312499995-14.145117187500002 5.8262695312499995-17.462109374999997 0l-108.97119140625-108.97119140625c-1.6672851562500002-1.6672851562500002-4.16337890625-4.16337890625-4.16337890625-8.32412109375-1.6672851562500002-1.6672851562500002-1.6672851562500002-4.16337890625-1.6672851562500002-5.8262695312499995v-25.78623046875c0-8.32412109375 5.8262695312499995-14.145117187500002 14.145117187500002-14.145117187500002h390.139453125c8.32412109375 0 14.145117187500002 5.8262695312499995 14.145117187500002 14.145117187500002v25.78623046875c-4.9869140625 10.81318359375-10.81318359375 14.96689453125-19.12939453125 14.96689453125zM717.9584960937501 400.8556640625h-390.139453125c-8.32412109375 0-14.145117187500002-5.8262695312499995-14.145117187500002-9.9720703125v-25.78623046875c0-8.32412109375 0-15.808007812500001 25.78623046875-15.808007812500001h305.2845703125l-65.71318359374999-63.22851562499999c-5.8262695312499995-5.8262695312499995-5.8262695312499995-14.145117187500002 0-17.462109374999997l17.462109374999997-17.462109374999997c5.8262695312499995-5.8262695312499995 14.145117187500002-5.8262695312499995 17.462109374999997 0l107.30302734375 100.655859375c8.32412109375 4.16337890625 8.32412109375 9.9720703125 8.32412109375 11.6455078125v25.78623046875c-1.6672851562500002 5.8262695312499995-7.486523437500001 11.6455078125-11.6455078125 11.6455078125z"  horiz-adv-x="1024" />

    
    <glyph glyph-name="zhifumimaxiugai" unicode="&#58892;" d="M844.8 512H281.6v102.4c0 128 102.4 230.4 230.4 230.4s227.84-102.4 230.4-230.4v-25.6h48.64c0 7.68 2.56 17.92 2.56 25.6 0 156.16-125.44 281.6-281.6 281.6C363.52 896 243.2 780.8 230.4 634.88V512H179.2c-56.32 0-102.4-46.08-102.4-102.4v-435.2c0-56.32 46.08-102.4 102.4-102.4h665.6c56.32 0 102.4 46.08 102.4 102.4V409.6c0 56.32-46.08 102.4-102.4 102.4z m51.2-512c0-56.32-20.48-76.8-76.8-76.8H204.8c-56.32 0-76.8 20.48-76.8 76.8V384c0 56.32 20.48 76.8 76.8 76.8h614.4c56.32 0 76.8-20.48 76.8-76.8v-384z m-281.6 204.8c15.36 0 25.6 10.24 25.6 25.6s-10.24 25.6-25.6 25.6h-69.12l87.04 84.48c10.24 10.24 10.24 25.6 0 35.84-10.24 10.24-25.6 10.24-33.28 0L512 289.28l-81.92 76.8c-10.24 10.24-25.6 10.24-35.84 0-10.24-10.24-10.24-25.6 0-35.84l79.36-74.24H409.6c-15.36 0-25.6-10.24-25.6-25.6s10.24-25.6 25.6-25.6h76.8v-51.2h-76.8c-15.36 0-25.6-10.24-25.6-25.6s10.24-25.6 25.6-25.6h76.8v-76.8c0-15.36 10.24-25.6 25.6-25.6s25.6 10.24 25.6 25.6v76.8h76.8c15.36 0 25.6 10.24 25.6 25.6s-10.24 25.6-25.6 25.6h-76.8v51.2h76.8z"  horiz-adv-x="1024" />

    
    <glyph glyph-name="bodadianhua" unicode="&#58947;" d="M512 896a512 512 0 1 1 512-512A512 512 0 0 1 512 896z m277.028571-346.514286a846.628571 846.628571 0 0 0-141.409523-97.523809c-14.994286-7.68-39.375238 1.28-59.367619 24.015238s-40.045714 52.662857-70.887619 37.729524a226.80381 226.80381 0 0 1-82.468572-61.561905 218.087619 218.087619 0 0 1-65.03619-93.318095c-9.447619-29.927619 18.285714-43.702857 39.801904-60.952381s33.03619-33.828571 24.868572-54.186667a997.059048 997.059048 0 0 0-96.24381-138.422857c-14.628571-15.420952-45.287619 6.4-45.287619 6.4a155.672381 155.672381 0 0 0-64.731428 112.822857c-6.095238 97.03619 25.84381 204.8 128 305.676191 100.87619 99.718095 223.451429 143.177143 310.857143 137.813333a157.135238 157.135238 0 0 0 111.664761-58.026667c11.580952-15.969524 27.001905-42.118095 10.24-60.464762z"  horiz-adv-x="1024" />

    
    <glyph glyph-name="xiaofei" unicode="&#58890;" d="M505.296 896C227.447 896 0.116 668.669 0.116 390.82s227.331-505.18 505.18-505.18 505.18 227.33 505.18 505.18S783.145 896 505.296 896z m6.567-959.842c-252.59 0-454.662 202.072-454.662 454.662S259.273 845.482 511.863 845.482 959.958 643.41 959.958 390.82 757.886-63.842 511.863-63.842zM674.026 407.996a33.847 33.847 0 0 1 0 67.694h-86.89l86.89 86.891c13.135 13.135 13.135 34.352 0 47.487a33.544 33.544 0 0 1-47.487 0L502.77 486.804 379.001 610.068a33.544 33.544 0 0 1-47.487 0 33.544 33.544 0 0 1 0-47.487l86.891-86.89h-81.334a33.847 33.847 0 0 1 0-67.695h134.883v-67.189H337.071a33.847 33.847 0 0 1 0-67.694h134.883v-78.303a33.847 33.847 0 0 1 67.694 0v78.303h134.883a33.847 33.847 0 0 1 0 67.694H539.143v67.19h134.883z"  horiz-adv-x="1024" />

    
    <glyph glyph-name="browse_fill" unicode="&#59108;" d="M376.16 344.064v71.872a128.16 128.16 0 0 0 128 128.064c70.592 0 128-57.44 128-128.064v-71.872a128.16 128.16 0 0 0-128-128.064c-70.592 0-128 57.44-128 128.064m494.88 80.96c-2.048 4.704-26.72 59.936-78.88 116.928C733.696 605.856 640.576 672 504.16 672s-229.6-66.24-288-130.016c-52.096-56.864-76.608-111.68-78.208-115.488-12.736-24.896-13.056-60.896-2.016-82.816 0.48-1.248 24.32-60.96 80.224-121.44 57.984-62.72 150.464-126.24 288-126.24 137.504 0 230.08 63.68 288 126.208 55.872 60.32 79.52 119.616 79.552 119.776 11.744 24.896 10.88 61.664-0.672 83.008"  horiz-adv-x="1024" />

    
    <glyph glyph-name="zhanghaoguanli" unicode="&#58908;" d="M108.449-29.293c-57.084 0-102.912 48.298-102.912 106.891v533.903c0 58.726 45.828 106.891 102.912 106.891h804.768c57.084 0 102.912-48.298 102.912-106.891v-533.081c0-58.726-45.828-106.891-102.912-106.891h-804.768v-0.823zM108.449 675.856c-34.578 0-61.884-28.956-61.884-64.354v-533.081c0-35.399 28.129-64.354 61.884-64.354h804.768c34.578 0 61.884 28.956 61.884 64.354v533.081c0 35.399-28.129 64.354-61.884 64.354h-804.768zM541.772 504.61c-12.899 0-23.326 10.43-23.326 24.151s10.43 24.151 23.326 24.151h329.591c12.899 0 23.326-10.43 23.326-24.151s-10.43-24.151-23.326-24.151h-329.591zM541.772 384.823c-12.899 0-23.326 10.43-23.326 24.151s10.43 24.151 23.326 24.151h329.591c12.899 0 23.326-10.43 23.326-24.151s-10.43-24.151-23.326-24.151h-329.591zM541.772 256.937c-12.899 0-23.326 10.43-23.326 24.151s10.43 24.151 23.326 24.151h278.135c12.899 0 23.326-10.43 23.326-24.151s-10.43-24.151-23.326-24.151h-278.135zM56.173 7.756c-2.47 0-4.802 0-7.27 0.823-12.899 3.979-20.033 18.524-16.055 32.106 23.326 78.761 77.94 143.116 148.741 176.871l16.055 8.096-13.722 12.073c-40.203 34.578-63.532 86.036-63.532 139.961 0 100.442 78.761 181.673 174.4 181.673 96.462 0 174.4-81.233 174.4-181.673 0-53.924-23.326-105.382-63.532-139.961l-13.722-12.073 16.055-8.096c68.333-32.106 133.51-112.516 158.347-195.395 16.055-53.101-16.877-36.226-1.644-16.055-3.157-4.802-16.877 5.628-32.106 5.628-12.899 0-19.348-24.973-19.348-22.503-31.421 104.555-121.436 204.176-218.722 204.176-99.755 0-187.301-67.513-217.074-167.266-1.235-11.116-10.838-18.386-21.267-18.386zM296.572 508.591c-69.979 0-127.063-58.726-127.063-131.039s57.084-131.039 127.063-131.039 127.063 58.726 127.063 131.039c-0.823 72.311-57.22 131.039-127.063 131.039z"  horiz-adv-x="1024" />

    
    <glyph glyph-name="xialajiantouxiangshang" unicode="&#59281;" d="M1023.60064 171.28448L511.80032 657.49504 0 171.28448z"  horiz-adv-x="1024" />

    
    <glyph glyph-name="xialajiantouxiangxia" unicode="&#59282;" d="M0 657.49504l511.80032-486.21056L1023.60064 657.49504z"  horiz-adv-x="1024" />

    
    <glyph glyph-name="bohui" unicode="&#58998;" d="M511.99578125 803.7909374999999C280.58890625 803.7909374999999 92.32296875000003 615.474375 92.32296875000003 384c0-231.46593750000002 188.2659375-419.7909374999999 419.67703124999997-419.7909374999999 73.36406249999999 0 145.57640625 19.2290625 208.84499999999997 55.57359375a34.1296875 34.1296875 0 0 1 12.546562499999999 46.570781249999996c-9.38671875 16.335-30.21890625 21.97125-46.54125 12.580312499999998-52.93265625-30.42984375-113.4084375-46.5075-174.84609374999997-46.5075-193.81359375 0-351.47249999999997 157.72218750000002-351.47249999999997 351.57374999999996 0 193.86421875 157.65890625 351.58218750000003 351.47249999999997 351.58218750000003 193.809375 0 351.489375-157.71796875 351.489375-351.58218750000003 0-75.10218750000001-23.33390625-146.74921875-67.48734375000001-207.18703125000002a34.112812500000004 34.112812500000004 0 0 1 7.408124999999999-47.671875c15.204375000000002-11.10796875 36.534375-7.7835937500000005 47.65921875 7.42921875 52.73859375 72.19125 80.611875 157.75171875 80.611875 247.42968749999994C931.67703125 615.474375 743.4026562500001 803.7909374999999 511.99578125 803.7909374999999z m211.03875-385.68234375H300.96546875000007c-18.8240625 0-34.09171875-15.27609375-34.09171875-34.10859375s15.267656250000002-34.104375 34.09171875-34.104375h422.07328125a34.10859375 34.10859375 0 0 1-0.00421875 68.21296874999999z"  horiz-adv-x="1024" />

    
    <glyph glyph-name="shibai" unicode="&#58921;" d="M182.872 487.626a18.226 18.226 0 0 0-12.927 5.356c-7.143 7.143-7.143 18.713 0 25.856l146.279 146.244c7.143 7.143 18.714 7.143 25.856 0s7.142-18.713 0-25.856L195.801 492.983a18.225 18.225 0 0 0-12.928-5.357zM329.151 487.626a18.23 18.23 0 0 0-12.928 5.356L169.945 639.227c-7.143 7.143-7.143 18.713 0 25.856s18.714 7.143 25.856 0L342.08 518.839c7.142-7.143 7.142-18.713 0-25.856a18.225 18.225 0 0 0-12.928-5.357zM694.851 487.626a18.228 18.228 0 0 0-12.928 5.356c-7.143 7.143-7.143 18.713 0 25.856l146.279 146.244c7.143 7.143 18.713 7.143 25.856 0s7.143-18.713 0-25.856L707.779 492.983a18.224 18.224 0 0 0-12.927-5.357zM841.129 487.626a18.228 18.228 0 0 0-12.927 5.356L681.923 639.227c-7.143 7.143-7.143 18.713 0 25.856s18.713 7.143 25.856 0l146.279-146.244c7.143-7.143 7.143-18.713 0-25.856a18.225 18.225 0 0 0-12.928-5.357zM841.129 120.954c-5.017 0-10 2.071-13.625 6.107-80.3 89.675-195.295 141.137-315.505 141.137s-235.205-51.462-315.505-141.137c-6.75-7.534-18.285-8.177-25.82-1.428-7.526 6.714-8.16 18.285-1.428 25.82 87.229 97.425 212.152 153.316 342.753 153.316 130.602 0 255.524-55.891 342.753-153.316 6.731-7.534 6.089-19.106-1.428-25.82-3.48-3.143-7.838-4.678-12.195-4.678z"  horiz-adv-x="1024" />

    
    <glyph glyph-name="down-trangle" unicode="&#58898;" d="M530.877 222.173l285.857 285.857c10.929 10.929 10.929 29.334 0 40.837-10.929 10.929-29.334 10.929-40.837 0l-265.725-265.725-264.573 264.573c-10.929 10.929-29.334 10.929-40.837 0-10.929-10.929-10.929-29.334 0-40.837l284.703-284.703c12.077-11.502 29.908-11.502 41.418 0z"  horiz-adv-x="1024" />

    


  </font>
</defs>
</svg>
